<svg xmlns="http://www.w3.org/2000/svg" width="10" height="10" viewBox="0 0 10 10">
    <path fill="#4187F7" fill-rule="nonzero" d="M6.526 4.627c.145-.152.259-.324.343-.516.084-.193.126-.397.126-.613 0-.361-.09-.694-.27-.998a2.04 2.04 0 0 0-.727-.727A1.923 1.923 0 0 0 5 1.503c-.36 0-.693.09-.998.27a2.04 2.04 0 0 0-.727.727c-.18.304-.27.637-.27.998h.985c0-.273.1-.51.3-.71.201-.2.438-.3.71-.3.272 0 .509.1.71.3.2.2.3.433.3.698 0 .264-.1.504-.3.72l-.614.626c-.184.2-.324.416-.42.649-.113.248-.169.5-.169.757v.264h.986c0-.344.056-.629.168-.853.072-.144.212-.328.42-.553l.445-.469zm-1.033 3.87v-.985h-.986v.986h.986zM5 0c.913 0 1.759.228 2.536.685a4.739 4.739 0 0 1 1.779 1.779C9.772 3.24 10 4.087 10 5s-.228 1.759-.685 2.536a4.739 4.739 0 0 1-1.779 1.779A4.917 4.917 0 0 1 5 10a4.917 4.917 0 0 1-2.536-.685A4.829 4.829 0 0 1 .685 7.524 4.895 4.895 0 0 1 0 5c0-.905.228-1.747.685-2.524A4.92 4.92 0 0 1 2.476.686 4.895 4.895 0 0 1 5 0z"/>
</svg>
