<?xml version="1.0" encoding="utf-8"?>
<!-- Generator: Adobe Illustrator 23.1.1, SVG Export Plug-In . SVG Version: 6.00 Build 0)  -->
<svg version="1.1" id="Layer_1" xmlns="http://www.w3.org/2000/svg" xmlns:xlink="http://www.w3.org/1999/xlink" x="0px" y="0px"
	 viewBox="0 0 16 16" style="enable-background:new 0 0 16 16;" xml:space="preserve">
<style type="text/css">
	.st0{fill-rule:evenodd;clip-rule:evenodd;fill:#FFFFFF;}
</style>
<path class="st0" d="M11.3,4.7H8.7V6h2.7c1.1,0,2,0.9,2,2s-0.9,2-2,2H8.7v1.3h2.7c1.8-0.1,3.3-1.6,3.2-3.4
	C14.5,6.1,13.1,4.7,11.3,4.7z"/>
<path class="st0" d="M7.3,10H4.7c-1.1,0-2-0.9-2-2s0.9-2,2-2h2.7V4.7H4.7C2.8,4.7,1.4,6.3,1.4,8.1c0.1,1.8,1.5,3.2,3.2,3.2h2.7V10z"
	/>
<rect x="5.3" y="7.3" class="st0" width="5.3" height="1.3"/>
</svg>
