<svg xmlns="http://www.w3.org/2000/svg" width="18" height="18" viewBox="0 0 18 18">
    <defs>
        <filter id="a" width="277.1%" height="357%" x="-88.5%" y="-123%" filterUnits="objectBoundingBox">
            <feMorphology in="SourceAlpha" radius="3.5" result="shadowSpreadOuter1"/>
            <feOffset dy="11" in="shadowSpreadOuter1" result="shadowOffsetOuter1"/>
            <feGaussianBlur in="shadowOffsetOuter1" result="shadowBlurOuter1" stdDeviation="7.5"/>
            <feColorMatrix in="shadowBlurOuter1" result="shadowMatrixOuter1" values="0 0 0 0 0 0 0 0 0 0 0 0 0 0 0 0 0 0 0.2 0"/>
            <feMorphology in="SourceAlpha" operator="dilate" radius="4" result="shadowSpreadOuter2"/>
            <feOffset dy="9" in="shadowSpreadOuter2" result="shadowOffsetOuter2"/>
            <feGaussianBlur in="shadowOffsetOuter2" result="shadowBlurOuter2" stdDeviation="23"/>
            <feColorMatrix in="shadowBlurOuter2" result="shadowMatrixOuter2" values="0 0 0 0 0 0 0 0 0 0 0 0 0 0 0 0 0 0 0.12 0"/>
            <feMorphology in="SourceAlpha" operator="dilate" radius="1.5" result="shadowSpreadOuter3"/>
            <feOffset dy="24" in="shadowSpreadOuter3" result="shadowOffsetOuter3"/>
            <feGaussianBlur in="shadowOffsetOuter3" result="shadowBlurOuter3" stdDeviation="19"/>
            <feColorMatrix in="shadowBlurOuter3" result="shadowMatrixOuter3" values="0 0 0 0 0 0 0 0 0 0 0 0 0 0 0 0 0 0 0.14 0"/>
            <feMerge>
                <feMergeNode in="shadowMatrixOuter1"/>
                <feMergeNode in="shadowMatrixOuter2"/>
                <feMergeNode in="shadowMatrixOuter3"/>
                <feMergeNode in="SourceGraphic"/>
            </feMerge>
        </filter>
        <linearGradient id="b" x1="100%" x2="0%" y1="26.367%" y2="73.633%">
            <stop offset="0%" stop-color="#0DC3D0"/>
            <stop offset="100%" stop-color="#0375B4"/>
        </linearGradient>
    </defs>
    <g fill="none" fill-rule="evenodd" filter="url(#a)" transform="translate(-124 -137)">
        <path d="M124 137h18v18h-18z"/>
        <path fill="url(#b)" d="M4.776 8.201c0 .496.362.852.911.852.512 0 1.201-.275 1.201-1.493 0-1.219-.96-2.31-2.56-2.31S1 6.406 1 9.036C1 12.185 3.664 15 8.04 15 12.46 15 17 11.788 17 5.379V4.377C17 4.128 16.328 4 15.56 4c-1.28 0-3.072.449-4.544 1.347-1.426.87-1.792 1.283-1.792 1.603 0 1.925-1.344 3.977-3.84 3.977-2.048 0-3.072-1.411-3.072-2.694 0-1.154.768-1.796 1.472-1.796.652 0 1.088.458 1.088 1.036 0 .192-.096.44-.096.728" transform="translate(124 137)"/>
    </g>
</svg>
