<svg xmlns="http://www.w3.org/2000/svg" width="18" height="18" viewBox="0 0 18 18">
    <g fill="none" fill-rule="evenodd">
        <path d="M0 0h18v18H0z"/>
        <path fill="#FFF" d="M3.204 3.235c.054 2.66.174 4.583.384 6.017.227 1.545.55 2.473.97 3.125.414.646.956 1.08 1.742 1.575.239.15.505.309.795.482.555.33 1.196.713 1.9 1.189a37.9 37.9 0 0 1 1.905-1.191c.289-.172.554-.33.793-.48.786-.496 1.33-.93 1.745-1.575.42-.653.745-1.58.972-3.126.211-1.434.332-3.357.385-6.016-1.216-.019-3.594-.213-5.8-1.83-2.202 1.615-4.578 1.81-5.79 1.83M8.63.13a.574.574 0 0 1 .731 0c2.295 1.87 4.916 1.855 5.906 1.85l.136-.001c.16 0 .313.067.425.187.113.12.174.282.172.45-.047 3.007-.17 5.192-.41 6.826-.241 1.635-.605 2.768-1.163 3.636-.562.875-1.285 1.423-2.122 1.949-.28.176-.567.347-.869.527-.623.37-1.308.779-2.11 1.34-.2.14-.46.14-.661 0-.8-.56-1.485-.968-2.107-1.338a40.55 40.55 0 0 1-.871-.53c-.836-.526-1.558-1.073-2.119-1.948-.557-.869-.92-2.001-1.16-3.636C2.17 7.809 2.048 5.623 2 2.617a.645.645 0 0 1 .171-.45.583.583 0 0 1 .426-.187h.135c.981.006 3.603.021 5.898-1.849"/>
    </g>
</svg>
