<svg viewBox="0 0 908.17 177.39" xmlns="http://www.w3.org/2000/svg"><path d="m0 30.88h30.38v-30.88h-30.38z" fill="#1141f3"/><path d="m89.86 0h-38v52.72h36.5a36 36 0 1 1 0 72.06h-36.47v-72.06h-51.89v124.67h89.86a88.09 88.09 0 0 0 84.76-88.7 88.09 88.09 0 0 0 -84.76-88.69" fill="#1141f3"/><path d="m236.09 48.39v63.2h21.91a23.79 23.79 0 0 0 23.45-14.14 42.91 42.91 0 0 0 3.65-18.45 39.9 39.9 0 0 0 -5.55-22.67c-3.66-5.54-11.08-7.93-21.67-7.93zm43.52-14.74a37.84 37.84 0 0 1 19.39 12.35 40.76 40.76 0 0 1 8.1 15.64 64.15 64.15 0 0 1 2.16 16 56.63 56.63 0 0 1 -9.15 32.7q-12.3 18.07-38 18.07h-49.11v-96.87h49a72.26 72.26 0 0 1 17.61 2.11z"/><path d="m325.51 128.38h22.17v-71.62h-22.17zm0-80.15h22.17v-17.23h-22.17z"/><path d="m418 108a20.56 20.56 0 0 0 5.54-15.8 21.54 21.54 0 0 0 -5.05-15.46 17.56 17.56 0 0 0 -13.47-5.55 15.91 15.91 0 0 0 -15.85 9.26 28.27 28.27 0 0 0 -2.33 12.14 23.83 23.83 0 0 0 2.5 11.09 16.13 16.13 0 0 0 15.91 9.09 18.12 18.12 0 0 0 13-5m-7.49-51.33a25.47 25.47 0 0 1 12.75 10.58v-10.26h21.4v68a33.25 33.25 0 0 1 -5.54 20.84c-6.27 8.09-18.3 12.08-36 12.08a55.8 55.8 0 0 1 -26.28-5.54 19.69 19.69 0 0 1 -11.09-16.14h23.9a8.14 8.14 0 0 0 3 4.72 21.15 21.15 0 0 0 12 2.55 16.66 16.66 0 0 0 15.86-6.77 30 30 0 0 0 2.42-14.5v-4.43a24.52 24.52 0 0 1 -6.76 6.93 30.89 30.89 0 0 1 -17 4.27 35 35 0 0 1 -25.89-9.7 35.49 35.49 0 0 1 -9.64-26.22 39.73 39.73 0 0 1 9.29-26.85 32.82 32.82 0 0 1 26.39-11.09 34.15 34.15 0 0 1 11.08 1.61"/><path d="m465.64 128.38h22.18v-71.62h-22.18zm0-80.15h22.18v-17.23h-22.18z"/><path d="m510.99 31.71h80.93v17.02h-57.37v22.22h50.28v16.86h-50.28v40.57h-23.56z"/><path d="m605.89 128.38h22.17v-71.62h-22.17zm0-80.15h22.17v-17.23h-22.17z"/><path d="m717.09 61a22.17 22.17 0 0 1 8.26 19.29v48.21h-22.51v-43.69a17.24 17.24 0 0 0 -1.77-8.64 12.92 12.92 0 0 0 -12.2-5.55 15.58 15.58 0 0 0 -15.24 8.1 24.38 24.38 0 0 0 -2.11 11.08v38.81h-22.17v-71.68h21.4v10.42a34.33 34.33 0 0 1 8-7.93 31.19 31.19 0 0 1 17.13-4.32 36.34 36.34 0 0 1 21.12 5.54"/><path d="m767.59 74.39a18.5 18.5 0 0 0 -5.82 11.09h37.81a14.81 14.81 0 0 0 -5.83-11.09 21.61 21.61 0 0 0 -13-3.88 19.35 19.35 0 0 0 -13.14 4.1m32.87-16.13a33.3 33.3 0 0 1 14.42 10.37 31.75 31.75 0 0 1 6.65 14.8 76.55 76.55 0 0 1 .72 14.19h-61a16.62 16.62 0 0 0 8.81 15.16 25.33 25.33 0 0 0 12.09 2.66 21.07 21.07 0 0 0 12.19-3.27 15.46 15.46 0 0 0 4.49-4.93h22.46a22.65 22.65 0 0 1 -8.15 12.92 44.76 44.76 0 0 1 -31.55 10.47 50.79 50.79 0 0 1 -29.61-8.85q-12.81-8.81-12.81-28.66a35.53 35.53 0 0 1 11.53-28.54 44.65 44.65 0 0 1 30.05-9.93 54.42 54.42 0 0 1 19.73 3.39"/><path d="m825.13 128.38 28.66-36.25-27.44-35.2h26.89l14.02 20.73 13.69-20.73h26.11l-27.55 34.87 28.66 36.58h-27.38l-14.42-21.5-14.58 21.5z"/></svg>