<svg xmlns="http://www.w3.org/2000/svg" xmlns:xlink="http://www.w3.org/1999/xlink" width="195" height="108" viewBox="0 0 195 108">
    <defs>
        <filter id="a" width="277.1%" height="269.4%" x="-88.5%" y="-81.1%" filterUnits="objectBoundingBox">
            <feMorphology in="SourceAlpha" radius="3.5" result="shadowSpreadOuter1"/>
            <feOffset dy="11" in="shadowSpreadOuter1" result="shadowOffsetOuter1"/>
            <feGaussianBlur in="shadowOffsetOuter1" result="shadowBlurOuter1" stdDeviation="7.5"/>
            <feColorMatrix in="shadowBlurOuter1" result="shadowMatrixOuter1" values="0 0 0 0 0 0 0 0 0 0 0 0 0 0 0 0 0 0 0.2 0"/>
            <feMorphology in="SourceAlpha" operator="dilate" radius="4" result="shadowSpreadOuter2"/>
            <feOffset dy="9" in="shadowSpreadOuter2" result="shadowOffsetOuter2"/>
            <feGaussianBlur in="shadowOffsetOuter2" result="shadowBlurOuter2" stdDeviation="23"/>
            <feColorMatrix in="shadowBlurOuter2" result="shadowMatrixOuter2" values="0 0 0 0 0 0 0 0 0 0 0 0 0 0 0 0 0 0 0.12 0"/>
            <feMorphology in="SourceAlpha" operator="dilate" radius="1.5" result="shadowSpreadOuter3"/>
            <feOffset dy="24" in="shadowSpreadOuter3" result="shadowOffsetOuter3"/>
            <feGaussianBlur in="shadowOffsetOuter3" result="shadowBlurOuter3" stdDeviation="19"/>
            <feColorMatrix in="shadowBlurOuter3" result="shadowMatrixOuter3" values="0 0 0 0 0 0 0 0 0 0 0 0 0 0 0 0 0 0 0.14 0"/>
            <feMerge>
                <feMergeNode in="shadowMatrixOuter1"/>
                <feMergeNode in="shadowMatrixOuter2"/>
                <feMergeNode in="shadowMatrixOuter3"/>
                <feMergeNode in="SourceGraphic"/>
            </feMerge>
        </filter>
        <path id="b" d="M0 0h69v80H0z"/>
    </defs>
    <g fill="none" fill-rule="evenodd" filter="url(#a)" transform="translate(-66 -21)">
        <g transform="translate(81 24)">
            <mask id="c" fill="#fff">
                <use xlink:href="#b"/>
            </mask>
            <path fill="#FFF" d="M5.936 15.222c.263 12.515.856 21.566 1.892 28.315 1.116 7.271 2.713 11.637 4.776 14.708 2.043 3.04 4.717 5.08 8.59 7.409 1.176.708 2.488 1.455 3.918 2.269 2.733 1.555 5.895 3.356 9.366 5.597 3.48-2.246 6.647-4.048 9.385-5.605a196.338 196.338 0 0 0 3.909-2.262c3.876-2.329 6.557-4.37 8.605-7.41 2.067-3.071 3.669-7.437 4.789-14.708 1.04-6.748 1.635-15.798 1.898-28.313-5.993-.087-17.718-1.003-28.586-8.607-10.856 7.596-22.566 8.519-28.542 8.607M32.678.618a2.931 2.931 0 0 1 3.601 0c11.31 8.799 24.231 8.728 29.11 8.7l.67-.002c.79 0 1.544.318 2.097.882.553.564.857 1.327.844 2.119-.23 14.148-.838 24.43-2.022 32.12-1.185 7.696-2.978 13.026-5.73 17.113-2.77 4.115-6.333 6.692-10.457 9.17-1.377.827-2.794 1.633-4.282 2.48-3.073 1.745-6.449 3.664-10.402 6.305-.986.66-2.27.66-3.257 0-3.948-2.637-7.317-4.554-10.384-6.298-1.493-.849-2.914-1.657-4.295-2.487-4.12-2.479-7.677-5.057-10.443-9.173-2.745-4.086-4.531-9.417-5.712-17.111C.836 36.746.23 26.464 0 12.316a2.96 2.96 0 0 1 .844-2.118 2.937 2.937 0 0 1 2.097-.882l.664.003c4.84.027 17.762.098 29.073-8.7" mask="url(#c)"/>
        </g>
        <path fill="#FFF" d="M246.75 46.723h-6.09v16.216h-4.098V46.723h-6.01l.001-3.25h16.198v3.25zm-21.865 11.11c0-.758-.273-1.337-.82-1.739-.546-.41-1.529-.837-2.95-1.283-1.42-.455-2.545-.901-3.373-1.337-2.259-1.194-3.387-2.803-3.387-4.826 0-1.052.3-1.988.901-2.808.61-.829 1.48-1.475 2.61-1.938 1.137-.464 2.411-.695 3.823-.695 1.42 0 2.686.254 3.797.762 1.11.499 1.971 1.207 2.581 2.125.62.918.929 1.961.929 3.129h-4.098c0-.892-.286-1.582-.86-2.073-.574-.499-1.38-.748-2.417-.748-1.002 0-1.78.209-2.336.628-.556.41-.833.954-.833 1.631 0 .633.323 1.163.97 1.591.655.428 1.616.829 2.881 1.203 2.331.687 4.03 1.538 5.095 2.554 1.065 1.016 1.598 2.281 1.598 3.797 0 1.684-.651 3.008-1.953 3.97-1.302.954-3.055 1.43-5.259 1.43-1.529 0-2.922-.271-4.179-.815-1.256-.553-2.217-1.305-2.882-2.26-.655-.953-.983-2.058-.983-3.315h4.111c0 2.148 1.311 3.222 3.933 3.222.975 0 1.735-.191 2.281-.575.547-.392.82-.935.82-1.63zm-13.671-14.36v12.822c0 2.13-.684 3.815-2.049 5.053-1.357 1.239-3.214 1.859-5.573 1.859-2.321 0-4.165-.602-5.531-1.805-1.366-1.203-2.062-2.857-2.09-4.96V43.474h4.098v12.848c0 1.274.31 2.206.928 2.794.629.58 1.494.869 2.595.869 2.304 0 3.474-1.186 3.51-3.556V43.474h4.112zm-28.819 9.092h3.305c1.03 0 1.826-.254 2.391-.762.564-.517.847-1.226.847-2.126 0-.918-.269-1.64-.806-2.166-.528-.526-1.343-.788-2.445-.788h-3.292v5.842zm3.265 3.249h-3.265v7.125h-4.097V43.474h7.389c2.349 0 4.16.512 5.436 1.537 1.274 1.025 1.912 2.474 1.912 4.345 0 1.328-.296 2.438-.888 3.33-.583.881-1.47 1.586-2.663 2.112l4.302 7.954v.187h-4.398l-3.728-7.125zm-9.711-9.091h-6.092v16.216h-4.096V46.723h-6.01v-3.25h16.198v3.25zM243.335 71.258H238v14.383h-1.316V71.258h-5.324v-1.117h11.975v1.117zm-14.648 6.952h-7.282v6.324h8.373v1.107h-9.687v-15.5h9.633v1.117h-8.319v5.845h7.282v1.107zm-18.818 6.324h7.687v1.107h-9.013v-15.5h1.326v14.393zm-11.547 0h7.687v1.107h-9.013v-15.5h1.326v14.393zm-13.268-4.354h6.243l-3.122-8.443-3.121 8.443zm6.66 1.117h-7.067l-1.604 4.344h-1.38l5.892-15.5h1.251l5.891 15.5h-1.368l-1.615-4.344zm-24.687.16l.48 2.406.589-2.3 3.378-11.422h1.187l3.336 11.422.578 2.32.512-2.427 2.812-11.315h1.348l-3.988 15.5h-1.262l-3.528-12.126-.396-1.533-.385 1.533-3.613 12.126h-1.263l-3.977-15.5h1.347l2.845 11.315z"/>
    </g>
</svg>
