<svg xmlns="http://www.w3.org/2000/svg" xmlns:xlink="http://www.w3.org/1999/xlink" width="18" height="18" viewBox="0 0 18 18">
    <defs>
        <filter id="a" width="277.1%" height="357%" x="-88.5%" y="-123%" filterUnits="objectBoundingBox">
            <feMorphology in="SourceAlpha" radius="3.5" result="shadowSpreadOuter1"/>
            <feOffset dy="11" in="shadowSpreadOuter1" result="shadowOffsetOuter1"/>
            <feGaussianBlur in="shadowOffsetOuter1" result="shadowBlurOuter1" stdDeviation="7.5"/>
            <feColorMatrix in="shadowBlurOuter1" result="shadowMatrixOuter1" values="0 0 0 0 0 0 0 0 0 0 0 0 0 0 0 0 0 0 0.2 0"/>
            <feMorphology in="SourceAlpha" operator="dilate" radius="4" result="shadowSpreadOuter2"/>
            <feOffset dy="9" in="shadowSpreadOuter2" result="shadowOffsetOuter2"/>
            <feGaussianBlur in="shadowOffsetOuter2" result="shadowBlurOuter2" stdDeviation="23"/>
            <feColorMatrix in="shadowBlurOuter2" result="shadowMatrixOuter2" values="0 0 0 0 0 0 0 0 0 0 0 0 0 0 0 0 0 0 0.12 0"/>
            <feMorphology in="SourceAlpha" operator="dilate" radius="1.5" result="shadowSpreadOuter3"/>
            <feOffset dy="24" in="shadowSpreadOuter3" result="shadowOffsetOuter3"/>
            <feGaussianBlur in="shadowOffsetOuter3" result="shadowBlurOuter3" stdDeviation="19"/>
            <feColorMatrix in="shadowBlurOuter3" result="shadowMatrixOuter3" values="0 0 0 0 0 0 0 0 0 0 0 0 0 0 0 0 0 0 0.14 0"/>
            <feMerge>
                <feMergeNode in="shadowMatrixOuter1"/>
                <feMergeNode in="shadowMatrixOuter2"/>
                <feMergeNode in="shadowMatrixOuter3"/>
                <feMergeNode in="SourceGraphic"/>
            </feMerge>
        </filter>
        <path id="b" d="M0 .223h6.856V7.62H0z"/>
    </defs>
    <g fill="none" fill-rule="evenodd" filter="url(#a)" transform="translate(-93 -177)">
        <path d="M93 177h18v18H93z"/>
        <path fill="#E17726" d="M104.115 180.913l-1.159 2.713 6.233-4.604z"/>
        <path fill="#E17726" d="M104.13 180.93l-1.123 2.63 6.044-4.463-4.92 1.833zm-1.174 2.718a.023.023 0 0 1-.014-.004.022.022 0 0 1-.006-.026l1.159-2.713a.025.025 0 0 1 .012-.013l5.074-1.89c.01-.004.022 0 .027.01.006.009.003.02-.006.028l-6.234 4.604c-.003.003-.008.004-.012.004z"/>
        <path fill="#E27625" d="M94.811 179.022l6.178 4.647-1.104-2.756z"/>
        <path fill="#E27625" d="M94.944 179.095l5.996 4.51-1.071-2.675-4.925-1.835zm6.045 4.596a.022.022 0 0 1-.013-.004l-6.178-4.648a.02.02 0 0 1-.006-.027c.005-.01.017-.014.027-.01l5.074 1.89c.006.003.01.007.012.013l1.104 2.756a.022.022 0 0 1-.007.026.02.02 0 0 1-.013.004zM106.945 189.698l-1.66 2.529 3.553.976 1.017-3.45z"/>
        <path fill="#E27625" d="M105.32 192.214l3.503.963 1.003-3.402-2.87-.055-1.635 2.494zm3.518 1.01h-.006l-3.552-.976a.023.023 0 0 1-.014-.013.02.02 0 0 1 .002-.02l1.658-2.53a.026.026 0 0 1 .019-.01l2.91.057c.007 0 .014.003.018.008a.022.022 0 0 1 .003.019l-1.017 3.45a.023.023 0 0 1-.021.016zM94.151 189.753l1.011 3.45 3.545-.976-1.652-2.53z"/>
        <path fill="#E27625" d="M94.18 189.774l.997 3.402 3.496-.963-1.63-2.494-2.863.055zm.982 3.451a.024.024 0 0 1-.02-.016l-1.012-3.45a.02.02 0 0 1 .004-.019.02.02 0 0 1 .017-.009l2.904-.056c.008.001.014.004.018.011l1.652 2.53a.022.022 0 0 1 .003.018.023.023 0 0 1-.015.014l-3.545.976-.006.001zM98.517 185.425l-.987 1.486 3.515.16-.117-3.776z"/>
        <path fill="#E27625" d="M97.57 186.89l3.452.158-.116-3.706-2.373 2.098-.964 1.45zm3.474.203v-.001l-3.516-.16c-.007 0-.014-.004-.018-.011a.024.024 0 0 1 .001-.022l.987-1.486.004-.004 2.41-2.13a.022.022 0 0 1 .023-.004.02.02 0 0 1 .013.019l.118 3.776a.02.02 0 0 1-.007.016.023.023 0 0 1-.015.007zM105.483 185.425l-2.448-2.173-.08 3.819 3.515-.16z"/>
        <path fill="#E27625" d="M103.057 183.3l-.08 3.747 3.454-.157-.964-1.45-2.41-2.14zm-.101 3.792a.02.02 0 0 1-.015-.006.023.023 0 0 1-.007-.016l.08-3.819c0-.009.005-.016.013-.019.008-.004.017-.002.024.003l2.447 2.173.004.005.987 1.485c.004.007.005.015 0 .022a.022.022 0 0 1-.018.012l-3.514.16h-.001zM98.708 192.227l2.127-1.025-1.831-1.424z"/>
        <path fill="#E27625" d="M99.02 189.818l-.286 2.372 2.06-.993-1.773-1.379zm-.312 2.431a.024.024 0 0 1-.013-.005c-.006-.004-.01-.012-.008-.02l.295-2.449a.022.022 0 0 1 .014-.018.02.02 0 0 1 .02.003l1.833 1.424a.028.028 0 0 1 .008.02c-.001.008-.005.014-.012.017l-2.128 1.025a.016.016 0 0 1-.01.003zM103.165 191.202l2.121 1.025-.289-2.45z"/>
        <path fill="#E27625" d="M103.206 191.198l2.054.993-.28-2.372-1.774 1.379zm2.08 1.05a.03.03 0 0 1-.009-.001l-2.12-1.025a.02.02 0 0 1-.013-.018.02.02 0 0 1 .008-.02l1.831-1.423a.022.022 0 0 1 .022-.003.021.021 0 0 1 .013.017l.29 2.45c.001.008-.003.015-.009.02a.022.022 0 0 1-.013.004z"/>
        <path fill="#D5BFB2" d="M105.286 192.227l-2.12-1.025.172 1.375-.019.583z"/>
        <path fill="#D5BFB2" d="M103.192 191.239l.167 1.335-.017.552 1.894-.9-2.044-.987zm.127 1.943a.02.02 0 0 1-.011-.003.023.023 0 0 1-.011-.02l.019-.583-.172-1.371a.024.024 0 0 1 .008-.021.027.027 0 0 1 .023-.002l2.121 1.026a.022.022 0 0 1 .012.019.023.023 0 0 1-.012.02l-1.967.933c-.003.002-.006.002-.01.002zM98.708 192.227l1.973.933-.013-.583.167-1.375z"/>
        <path fill="#D5BFB2" d="M98.758 192.227l1.9.898-.011-.547.16-1.339-2.05.988zm1.923.955c-.004 0-.006 0-.01-.002l-1.973-.933a.023.023 0 0 1-.012-.02c0-.008.005-.016.012-.02l2.127-1.025a.024.024 0 0 1 .022.002.023.023 0 0 1 .01.021l-.167 1.375.012.58c0 .007-.003.014-.01.019a.027.027 0 0 1-.011.003z"/>
        <path fill="#233447" d="M100.717 188.87l-1.763-.517 1.245-.57z"/>
        <path fill="#233447" d="M99.016 188.349l1.661.486-.488-1.024-1.173.538zm1.702.542h-.007l-1.763-.517a.02.02 0 0 1-.015-.02.02.02 0 0 1 .012-.02l1.245-.571a.022.022 0 0 1 .03.01l.517 1.087a.021.021 0 0 1-.003.024.02.02 0 0 1-.016.007zM103.282 188.87l.518-1.088 1.252.571z"/>
        <path fill="#233447" d="M103.81 187.811l-.487 1.023 1.667-.485-1.18-.538zm-.527 1.08a.021.021 0 0 1-.017-.008c-.005-.007-.007-.016-.003-.023l.518-1.087c.005-.011.018-.015.029-.01l1.25.57a.022.022 0 0 1 .014.022c-.001.009-.007.017-.015.019l-1.77.516-.006.001z"/>
        <path fill="#CC6228" d="M98.708 192.227l.308-2.529-1.96.055z"/>
        <path fill="#CC6228" d="M97.095 189.774l1.598 2.392.298-2.446-1.896.054zm1.612 2.475a.02.02 0 0 1-.018-.01l-1.652-2.474a.024.024 0 0 1-.002-.022.021.021 0 0 1 .02-.011l1.96-.056c.005 0 .013.002.017.007a.023.023 0 0 1 .005.018l-.308 2.529c0 .009-.008.016-.017.019h-.005zM104.984 189.698l.302 2.529 1.659-2.474z"/>
        <path fill="#CC6228" d="M105.009 189.72l.292 2.446 1.604-2.392-1.896-.054zm.277 2.53l-.005-.002c-.01-.002-.015-.009-.016-.019l-.302-2.529a.022.022 0 0 1 .005-.017c.004-.005.012-.007.017-.007l1.96.055a.02.02 0 0 1 .019.012.022.022 0 0 1-.001.022l-1.66 2.474c-.002.006-.01.01-.017.01zM106.47 186.91l-3.514.16.326 1.799.519-1.086 1.25.57z"/>
        <path fill="#CC6228" d="M102.981 187.09l.31 1.709.49-1.026c.004-.011.017-.015.028-.01l1.238.564 1.368-1.392-3.434.156zm.302 1.8h-.004c-.008-.001-.016-.007-.018-.017l-.327-1.8a.02.02 0 0 1 .02-.024l3.515-.16a.02.02 0 0 1 .02.013.021.021 0 0 1-.004.024l-1.418 1.443a.021.021 0 0 1-.023.004l-1.234-.562-.508 1.068a.024.024 0 0 1-.02.012zM98.954 188.353l1.246-.57.517 1.087.327-1.8-3.514-.16z"/>
        <path fill="#CC6228" d="M100.2 187.76c.008 0 .016.005.02.013l.488 1.026.31-1.708-3.433-.156 1.374 1.392 1.232-.564c.003-.002.006-.002.009-.002zm.518 1.13a.023.023 0 0 1-.02-.011l-.51-1.068-1.224.562a.023.023 0 0 1-.025-.004l-1.424-1.443a.023.023 0 0 1-.005-.024c.004-.008.012-.014.02-.013l3.516.16a.02.02 0 0 1 .016.008c.004.005.005.01.004.017l-.327 1.799c-.001.01-.01.016-.018.018h-.003z"/>
        <path fill="#E27525" d="M97.53 186.91l1.474 2.868-.05-1.424z"/>
        <path fill="#E27525" d="M97.614 187.027l1.364 2.654-.046-1.319-1.318-1.335zm1.39 2.772a.02.02 0 0 1-.02-.012l-1.474-2.867c-.004-.009-.002-.02.007-.027a.02.02 0 0 1 .028.002l1.424 1.443c.004.003.006.01.007.014l.05 1.425a.02.02 0 0 1-.017.021l-.006.001zM105.052 188.353l-.055 1.424 1.473-2.866z"/>
        <path fill="#E27525" d="M105.073 188.363l-.05 1.317 1.362-2.652-1.312 1.335zm-.077 1.437l-.006-.001a.024.024 0 0 1-.016-.022l.056-1.424a.02.02 0 0 1 .006-.015l1.418-1.442a.023.023 0 0 1 .03-.003.023.023 0 0 1 .005.028l-1.474 2.867a.021.021 0 0 1-.019.012zM101.044 187.07l-.326 1.8.412 2.123.094-2.799z"/>
        <path fill="#E27525" d="M100.74 188.869l.375 1.93.086-2.606-.158-.993-.303 1.669zm.39 2.146a.02.02 0 0 1-.02-.017l-.413-2.125a.009.009 0 0 1 0-.007l.326-1.8a.023.023 0 0 1 .022-.017c.01 0 .019.008.02.018l.18 1.124-.092 2.803c-.001.01-.01.02-.02.02h-.002zM102.956 187.07l-.172 1.117.086 2.806.413-2.124z"/>
        <path fill="#E27525" d="M102.958 187.202l-.153.989.08 2.607.376-1.93-.303-1.666zm-.088 3.813h-.002c-.011 0-.02-.01-.02-.021l-.086-2.805.173-1.122a.02.02 0 0 1 .02-.018c.012 0 .02.007.023.018l.326 1.799a.009.009 0 0 1 0 .007l-.413 2.125a.021.021 0 0 1-.021.017z"/>
        <path fill="#F5841F" d="M103.282 188.87l-.413 2.123.296.21 1.831-1.425.056-1.425z"/>
        <path fill="#F5841F" d="M102.894 190.983l.27.191 1.812-1.408.053-1.384-1.727.504-.408 2.097zm.27.24a.02.02 0 0 1-.011-.004l-.296-.209a.023.023 0 0 1-.01-.022l.415-2.124a.02.02 0 0 1 .015-.016l1.769-.516a.024.024 0 0 1 .02.004.023.023 0 0 1 .008.018l-.055 1.424a.024.024 0 0 1-.01.017l-1.83 1.424a.023.023 0 0 1-.014.004zM98.954 188.353l.05 1.424 1.83 1.425.296-.208-.413-2.124z"/>
        <path fill="#F5841F" d="M99.025 189.767l1.811 1.408.271-.192-.408-2.097-1.722-.504.048 1.384zm1.81 1.457a.023.023 0 0 1-.014-.004l-1.831-1.425a.02.02 0 0 1-.008-.016l-.05-1.425c0-.007.003-.014.009-.019a.023.023 0 0 1 .02-.003l1.763.516c.008.002.013.008.015.016l.413 2.124a.021.021 0 0 1-.009.022l-.296.21a.02.02 0 0 1-.012.003z"/>
        <path fill="#C0AC9D" d="M103.32 193.16l.018-.583-.16-.135h-2.356l-.154.135.012.583-1.973-.933.691.565 1.4.964h2.398l1.405-.964.685-.565z"/>
        <path fill="#C0AC9D" d="M100.804 193.734h2.385l1.4-.96.548-.452-1.809.858a.022.022 0 0 1-.02-.001.026.026 0 0 1-.01-.02l.018-.572-.147-.123h-2.339l-.14.123.012.573a.022.022 0 0 1-.01.019.022.022 0 0 1-.02 0l-1.813-.856.552.452 1.393.959zm2.392.043h-2.398a.028.028 0 0 1-.013-.003l-1.399-.964-.692-.566a.022.022 0 0 1-.005-.03.022.022 0 0 1 .028-.006l1.941.918-.012-.548c0-.007.003-.013.008-.017l.154-.135a.019.019 0 0 1 .014-.005h2.356c.004 0 .01 0 .013.004l.161.136c.005.004.008.01.008.017l-.018.548 1.935-.918c.01-.005.022-.002.027.007a.023.023 0 0 1-.004.029l-.684.565-1.408.965a.027.027 0 0 1-.012.003z"/>
        <path fill="#161616" d="M103.165 191.202l-.296-.208h-1.739l-.296.208-.166 1.375.154-.135h2.356l.16.135z"/>
        <path fill="#161616" d="M100.822 192.42h2.355c.005 0 .01.001.014.005l.118.1-.165-1.31-.282-.2h-1.725l-.282.198-.158 1.31.111-.098a.024.024 0 0 1 .014-.005m2.516.178c-.005 0-.01 0-.015-.005l-.154-.13h-2.339l-.148.13c-.006.006-.016.007-.024.003a.022.022 0 0 1-.012-.022l.167-1.375c.001-.006.004-.012.01-.015l.295-.209c.003-.003.008-.004.012-.004h1.74c.003 0 .008.001.012.004l.295.21a.02.02 0 0 1 .01.014l.172 1.375a.022.022 0 0 1-.01.022c-.004.002-.008.002-.01.002"/>
        <path fill="#763E1A" d="M109.454 183.927l.524-2.542-.789-2.363-6.024 4.45 2.318 1.953 3.274.951.721-.84-.314-.228.5-.454-.383-.295.5-.38z"/>
        <path fill="#763E1A" d="M105.494 185.405l3.256.946.697-.812-.296-.213a.026.026 0 0 1-.009-.017c0-.006.002-.013.007-.017l.481-.437-.362-.279a.021.021 0 0 1-.008-.017c0-.007.003-.013.008-.017l.477-.364-.304-.234a.023.023 0 0 1-.009-.02l.523-2.538-.777-2.329-5.978 4.416 2.294 1.932zm3.263.993h-.006l-3.274-.952a.03.03 0 0 1-.008-.004l-2.318-1.953a.023.023 0 0 1-.008-.017c0-.007.004-.013.01-.017l6.023-4.45a.022.022 0 0 1 .02-.004.02.02 0 0 1 .013.014l.79 2.363a.02.02 0 0 1 0 .011l-.52 2.53.315.242a.024.024 0 0 1 .01.017.024.024 0 0 1-.01.018l-.477.363.36.278a.02.02 0 0 1 .008.016.023.023 0 0 1-.007.017l-.479.436.293.211c.004.004.007.01.008.015a.023.023 0 0 1-.005.018l-.72.84c-.006.005-.01.008-.018.008zM94.022 181.385l.53 2.542-.34.251.507.381-.383.295.5.454-.314.227.72.841 3.275-.95 2.318-1.954-6.023-4.45z"/>
        <g transform="translate(94 178.778)">
            <mask id="c" fill="#fff">
                <use xlink:href="#b"/>
            </mask>
            <path fill="#763E1A" d="M.553 6.761l.697.813 3.256-.946L6.8 4.697.822.279.044 2.61l.53 2.535a.02.02 0 0 1-.009.022l-.316.236.482.362a.02.02 0 0 1 .01.018.025.025 0 0 1-.009.018l-.362.277.48.438a.02.02 0 0 1 .007.018c0 .005-.004.011-.009.015l-.295.213zm.69.86a.024.024 0 0 1-.017-.008l-.722-.84A.026.026 0 0 1 .5 6.755c.001-.005.004-.011.01-.014L.8 6.529l-.48-.436a.026.026 0 0 1-.007-.018c0-.006.004-.011.01-.016l.358-.277L.2 5.418a.023.023 0 0 1-.008-.016c0-.008.003-.014.008-.019l.33-.242L0 2.612.001 2.6.791.237A.022.022 0 0 1 .803.224a.024.024 0 0 1 .02.003l6.023 4.45a.02.02 0 0 1 .01.018c0 .005-.003.012-.009.016L4.53 6.665a.02.02 0 0 1-.008.003l-3.274.952h-.006z" mask="url(#c)"/>
        </g>
        <path fill="#F5841F" d="M108.757 186.376l-3.274-.952.986 1.486-1.473 2.867 1.95-.025h2.91z"/>
        <path fill="#F5841F" d="M105.535 185.462l.954 1.436a.024.024 0 0 1 0 .022l-1.456 2.835 1.912-.024h2.88l-1.084-3.337-3.206-.932zm-.538 4.337a.023.023 0 0 1-.02-.01.024.024 0 0 1 0-.022l1.468-2.855-.98-1.475a.023.023 0 0 1 0-.025.023.023 0 0 1 .025-.009l3.274.952a.023.023 0 0 1 .015.014l1.097 3.377a.024.024 0 0 1-.003.02.025.025 0 0 1-.018.008h-2.91l-1.948.025zM98.517 185.425l-3.274.952-1.091 3.376h2.904l1.948.025-1.474-2.867z"/>
        <path fill="#F5841F" d="M94.181 189.731h2.874l1.913.024-1.457-2.835a.02.02 0 0 1 .001-.022l.953-1.436-3.205.932-1.079 3.337zm4.822.068l-1.948-.025h-2.904a.021.021 0 0 1-.017-.008.022.022 0 0 1-.004-.02l1.092-3.377a.02.02 0 0 1 .014-.014l3.274-.952a.023.023 0 0 1 .024.01.025.025 0 0 1 .001.024l-.98 1.475 1.468 2.855a.024.024 0 0 1 0 .022.023.023 0 0 1-.02.01zM102.956 187.07l.209-3.598.95-2.56h-4.23l.95 2.56.21 3.598.08 1.13.006 2.793h1.739l.006-2.794z"/>
        <path fill="#F5841F" d="M101.153 190.971h1.695l.006-2.772.08-1.13.21-3.598v-.006l.94-2.53h-4.167l.938 2.53a.014.014 0 0 1 .002.006l.209 3.598.08 1.13.007 2.772zm1.717.044h-1.74a.022.022 0 0 1-.021-.022l-.006-2.794-.08-1.128-.21-3.594-.948-2.557a.024.024 0 0 1 .003-.02.02.02 0 0 1 .018-.009h4.229c.007 0 .014.003.018.01a.024.024 0 0 1 .003.02l-.95 2.556-.208 3.594-.081 1.13-.005 2.792c0 .012-.01.022-.022.022z"/>
    </g>
</svg>
