<svg xmlns="http://www.w3.org/2000/svg" xmlns:xlink="http://www.w3.org/1999/xlink" width="140" height="54" viewBox="0 0 140 54">
    <defs>
        <path id="a" d="M.59.103h77.773v22.189H.59z"/>
        <path id="c" d="M.291.33h20.64v20.638H.292z"/>
        <path id="e" d="M.59.103h77.773v22.189H.59z"/>
        <path id="g" d="M.291.33h20.64v20.638H.292z"/>
    </defs>
    <g fill="none" fill-rule="evenodd">
        <g transform="translate(55.323 15.642)">
            <mask id="b" fill="#fff">
                <use xlink:href="#a"/>
            </mask>
            <path fill="#FFF" d="M73.333.496h4.893l-7.039 10.643 7.177 10.772h-4.92l-4.625-7.3-4.625 7.3h-4.933l7.168-10.772L59.395.493h4.893l4.534 7.24L73.333.495zm-28.9 0h12.87v3.57h-8.367v5.176h7.977v3.57h-7.977v5.531h8.459v3.568H44.434L44.433.496zM24.976 21.91V.496h4.502v10.29L36.907.495h5.21l-7.879 10.581 8.428 10.838H37.1l-7.624-10.516v10.516l-4.501-.004zM11.373 18.76c.95.027 1.889-.17 2.75-.569a5.598 5.598 0 0 0 1.961-1.59 6.83 6.83 0 0 0 1.179-2.4 11.76 11.76 0 0 0 0-5.982 6.832 6.832 0 0 0-1.175-2.396 5.563 5.563 0 0 0-1.96-1.594 6.813 6.813 0 0 0-5.501 0 5.563 5.563 0 0 0-1.961 1.594A6.808 6.808 0 0 0 5.49 8.219a11.76 11.76 0 0 0 0 5.983 6.83 6.83 0 0 0 1.176 2.379 5.54 5.54 0 0 0 1.962 1.592 6.12 6.12 0 0 0 2.749.586l-.005.001zm10.774-7.558a12.574 12.574 0 0 1-.724 4.293c-.46 1.3-1.17 2.498-2.092 3.522a9.844 9.844 0 0 1-3.375 2.39 12.319 12.319 0 0 1-9.174 0 9.97 9.97 0 0 1-3.393-2.398 10.112 10.112 0 0 1-2.091-3.52 13.336 13.336 0 0 1 0-8.573 10.084 10.084 0 0 1 2.09-3.54A9.955 9.955 0 0 1 6.783.989a12.303 12.303 0 0 1 9.162 0 9.801 9.801 0 0 1 3.378 2.394 10.472 10.472 0 0 1 2.1 3.545c.487 1.373.732 2.818.725 4.275z" mask="url(#b)"/>
        </g>
        <path fill="#7ABDF7" d="M25.34 24.34c1.612.396 3.297.396 4.91 0a10.33 10.33 0 0 1 7.57-7.568c1.352-5.535-2.039-11.121-7.574-12.474C24.71 2.943 19.124 6.335 17.77 11.87a10.309 10.309 0 0 0 0 4.902 10.33 10.33 0 0 1 7.57 7.568"/>
        <g transform="translate(17.183 28.62)">
            <mask id="d" fill="#fff">
                <use xlink:href="#c"/>
            </mask>
            <path fill="#0D74F5" d="M13.067.627a10.302 10.302 0 0 0-4.91 0A10.335 10.335 0 0 1 .59 8.195C-.765 13.731 2.626 19.317 8.162 20.67c5.536 1.354 11.12-2.037 12.474-7.572.394-1.61.394-3.292 0-4.903a10.33 10.33 0 0 1-7.57-7.568" mask="url(#d)"/>
        </g>
        <path fill="#4494F7" d="M40.272 16.475c-.828 0-1.651.099-2.453.296a10.328 10.328 0 0 1-7.568 7.568 10.338 10.338 0 0 0 0 4.91 10.33 10.33 0 0 1 7.568 7.567c5.535 1.353 11.12-2.04 12.471-7.576 1.353-5.536-2.04-11.12-7.575-12.472-.8-.197-1.62-.295-2.443-.295v.002z"/>
        <path fill="#005CF4" d="M25.34 29.248a10.338 10.338 0 0 0 0-4.91 10.328 10.328 0 0 1-7.567-7.568c-5.537-1.353-11.122 2.037-12.475 7.574-1.354 5.536 2.037 11.12 7.572 12.474 1.61.393 3.292.393 4.903 0a10.33 10.33 0 0 1 7.568-7.57"/>
        <path fill="#186EF9" d="M30.25 24.34a10.332 10.332 0 0 0 7.569-7.568 10.33 10.33 0 0 0-7.57 7.568"/>
        <path fill="#0246F2" d="M30.25 29.248a10.33 10.33 0 0 0 7.569 7.568 10.332 10.332 0 0 0-7.57-7.568"/>
        <path fill="#0046F8" d="M25.34 24.34a10.335 10.335 0 0 0-7.567-7.568 10.328 10.328 0 0 0 7.568 7.568"/>
        <path fill="#0729F1" d="M25.34 29.248a10.328 10.328 0 0 0-7.567 7.568 10.335 10.335 0 0 0 7.568-7.568"/>
        <g transform="translate(55.323 15.642)">
            <mask id="f" fill="#fff">
                <use xlink:href="#e"/>
            </mask>
            <path fill="#000" d="M73.333.496h4.893l-7.039 10.643 7.177 10.772h-4.92l-4.625-7.3-4.625 7.3h-4.933l7.168-10.772L59.395.493h4.893l4.534 7.24L73.333.495zm-28.9 0h12.87v3.57h-8.367v5.176h7.977v3.57h-7.977v5.531h8.459v3.568H44.434L44.433.496zM24.976 21.91V.496h4.502v10.29L36.907.495h5.21l-7.879 10.581 8.428 10.838H37.1l-7.624-10.516v10.516l-4.501-.004zM11.373 18.76c.95.027 1.889-.17 2.75-.569a5.598 5.598 0 0 0 1.961-1.59 6.83 6.83 0 0 0 1.179-2.4 11.76 11.76 0 0 0 0-5.982 6.832 6.832 0 0 0-1.175-2.396 5.563 5.563 0 0 0-1.96-1.594 6.813 6.813 0 0 0-5.501 0 5.563 5.563 0 0 0-1.961 1.594A6.808 6.808 0 0 0 5.49 8.219a11.76 11.76 0 0 0 0 5.983 6.83 6.83 0 0 0 1.176 2.379 5.54 5.54 0 0 0 1.962 1.592 6.12 6.12 0 0 0 2.749.586l-.005.001zm10.774-7.558a12.574 12.574 0 0 1-.724 4.293c-.46 1.3-1.17 2.498-2.092 3.522a9.844 9.844 0 0 1-3.375 2.39 12.319 12.319 0 0 1-9.174 0 9.97 9.97 0 0 1-3.393-2.398 10.112 10.112 0 0 1-2.091-3.52 13.336 13.336 0 0 1 0-8.573 10.084 10.084 0 0 1 2.09-3.54A9.955 9.955 0 0 1 6.783.989a12.303 12.303 0 0 1 9.162 0 9.801 9.801 0 0 1 3.378 2.394 10.472 10.472 0 0 1 2.1 3.545c.487 1.373.732 2.818.725 4.275z" mask="url(#f)"/>
        </g>
        <path fill="#7ABDF7" d="M25.34 24.34c1.612.396 3.297.396 4.91 0a10.33 10.33 0 0 1 7.57-7.568c1.352-5.535-2.039-11.121-7.574-12.474C24.71 2.943 19.124 6.335 17.77 11.87a10.309 10.309 0 0 0 0 4.902 10.33 10.33 0 0 1 7.57 7.568"/>
        <g transform="translate(17.183 28.62)">
            <mask id="h" fill="#fff">
                <use xlink:href="#g"/>
            </mask>
            <path fill="#0D74F5" d="M13.067.627a10.302 10.302 0 0 0-4.91 0A10.335 10.335 0 0 1 .59 8.195C-.765 13.731 2.626 19.317 8.162 20.67c5.536 1.354 11.12-2.037 12.474-7.572.394-1.61.394-3.292 0-4.903a10.33 10.33 0 0 1-7.57-7.568" mask="url(#h)"/>
        </g>
        <path fill="#4494F7" d="M40.272 16.475c-.828 0-1.651.099-2.453.296a10.328 10.328 0 0 1-7.568 7.568 10.338 10.338 0 0 0 0 4.91 10.33 10.33 0 0 1 7.568 7.567c5.535 1.353 11.12-2.04 12.471-7.576 1.353-5.536-2.04-11.12-7.575-12.472-.8-.197-1.62-.295-2.443-.295v.002z"/>
        <path fill="#005CF4" d="M25.34 29.248a10.338 10.338 0 0 0 0-4.91 10.328 10.328 0 0 1-7.567-7.568c-5.537-1.353-11.122 2.037-12.475 7.574-1.354 5.536 2.037 11.12 7.572 12.474 1.61.393 3.292.393 4.903 0a10.33 10.33 0 0 1 7.568-7.57"/>
        <path fill="#186EF9" d="M30.25 24.34a10.332 10.332 0 0 0 7.569-7.568 10.33 10.33 0 0 0-7.57 7.568"/>
        <path fill="#0246F2" d="M30.25 29.248a10.33 10.33 0 0 0 7.569 7.568 10.332 10.332 0 0 0-7.57-7.568"/>
        <path fill="#0046F8" d="M25.34 24.34a10.335 10.335 0 0 0-7.567-7.568 10.328 10.328 0 0 0 7.568 7.568"/>
        <path fill="#0729F1" d="M25.34 29.248a10.328 10.328 0 0 0-7.567 7.568 10.335 10.335 0 0 0 7.568-7.568"/>
    </g>
</svg>
