<svg xmlns="http://www.w3.org/2000/svg" xmlns:xlink="http://www.w3.org/1999/xlink" width="185" height="47" viewBox="0 0 185 47">
    <defs>
        <path id="a" d="M0 .265h46.603v46.603H0z"/>
        <path id="c" d="M0 46.868h184.287V.264H0z"/>
    </defs>
    <g fill="none" fill-rule="evenodd">
        <path fill="#4187F7" d="M23.3 25.67l-11.02-6.364 1.404-2.433 9.616 5.553 9.617-5.553 1.405 2.433z"/>
        <path fill="#4187F7" d="M11.577 29.802h2.809V17.887h-2.81zM32.215 29.802h2.809V17.887h-2.81z"/>
        <g transform="translate(0 .13)">
            <path fill="#4187F7" d="M26.093 23.715a2.793 2.793 0 1 1-5.585 0 2.793 2.793 0 0 1 5.585 0M36.722 17.847a3.121 3.121 0 1 1-6.242 0 3.121 3.121 0 0 1 6.242 0M36.722 29.626a3.121 3.121 0 1 1-6.243 0 3.121 3.121 0 0 1 6.243 0M16.124 17.765a3.121 3.121 0 1 1-6.243 0 3.121 3.121 0 0 1 6.243 0M16.124 29.664a3.121 3.121 0 1 1-6.243 0 3.121 3.121 0 0 1 6.243 0"/>
            <mask id="b" fill="#fff">
                <use xlink:href="#a"/>
            </mask>
            <path fill="#4187F7" d="M23.302.265C10.432.265 0 10.697 0 23.566c0 12.87 10.432 23.302 23.302 23.302 12.869 0 23.301-10.433 23.301-23.302S36.171.265 23.302.265m0 2.452c11.496 0 20.849 9.353 20.849 20.849s-9.353 20.85-20.85 20.85c-11.495 0-20.848-9.354-20.848-20.85 0-11.496 9.353-20.849 20.849-20.849" mask="url(#b)"/>
            <path fill="#FFF" d="M85.314 3.539v20.336h-2.91V9.937a16.108 16.108 0 0 1 .085-1.554l-6.538 12.074c-.254.5-.645.749-1.172.749h-.466c-.537 0-.928-.25-1.173-.749L66.503 8.354a16.413 16.413 0 0 1 .085 1.583v13.938h-2.91V3.54h2.472c.292 0 .518.026.678.077.16.053.306.21.438.474l6.524 11.82c.142.273.276.553.402.84.128.287.243.582.347.883.113-.301.233-.6.36-.897.127-.297.261-.58.402-.854L81.727 4.09c.132-.264.278-.421.438-.474.16-.051.386-.077.677-.077h2.472zM102.049 9.47l-7.937 18.5a1.493 1.493 0 0 1-.374.509c-.146.122-.37.183-.67.183h-2.246l2.655-5.761-5.875-13.43h2.64c.255 0 .45.058.587.176a1.1 1.1 0 0 1 .304.416l3.431 8.177c.085.236.163.469.233.7.071.23.14.468.205.713.075-.245.15-.485.226-.721.075-.235.16-.47.254-.706l3.29-8.163a.937.937 0 0 1 .332-.423.857.857 0 0 1 .516-.17h2.429zM125.93 3.539v20.336h-2.91V9.937a15.657 15.657 0 0 1 .085-1.554l-6.538 12.074c-.255.5-.646.749-1.173.749h-.466c-.536 0-.927-.25-1.172-.749l-6.637-12.103a16.412 16.412 0 0 1 .085 1.583v13.938h-2.91V3.54h2.472c.292 0 .518.026.677.077.16.053.306.21.438.474l6.525 11.82c.141.273.275.553.402.84.127.287.242.582.347.883.112-.301.232-.6.36-.897.126-.297.26-.58.402-.854l6.426-11.792c.132-.264.277-.421.437-.474.16-.051.386-.077.678-.077h2.472zM145.235 13.707c0-1.167-.158-2.217-.474-3.15-.315-.931-.766-1.717-1.355-2.357a5.909 5.909 0 0 0-2.14-1.476c-.838-.344-1.779-.516-2.824-.516h-4.364v14.998h4.364c1.045 0 1.986-.17 2.824-.508a5.799 5.799 0 0 0 2.14-1.476c.589-.645 1.04-1.431 1.355-2.359.316-.927.474-1.98.474-3.156m3.375 0c0 1.506-.245 2.884-.734 4.13-.49 1.249-1.18 2.32-2.07 3.213-.889.895-1.958 1.59-3.205 2.083-1.248.495-2.634.742-4.159.742h-7.683V3.54h7.683c1.525 0 2.911.247 4.16.741 1.246.494 2.315 1.19 3.205 2.084.889.894 1.579 1.964 2.069 3.213.49 1.246.734 2.624.734 4.13M165.415 6.293h-6.341v17.582h-3.29V6.293h-6.355V3.539h15.986zM71.016 38.39c0-.605-.083-1.148-.248-1.627-.165-.48-.4-.886-.705-1.22a3.003 3.003 0 0 0-1.106-.762 3.836 3.836 0 0 0-1.45-.262h-2.311v7.741h2.31c.535 0 1.018-.087 1.45-.262a3.003 3.003 0 0 0 1.107-.762c.304-.333.54-.738.705-1.216.165-.477.248-1.02.248-1.63m1.546 0c0 .76-.122 1.453-.366 2.077a4.634 4.634 0 0 1-1.031 1.606 4.627 4.627 0 0 1-1.595 1.038c-.62.246-1.307.369-2.063.369h-3.828V33.3h3.828c.756 0 1.444.122 2.063.368.619.246 1.15.592 1.595 1.039.444.446.788.983 1.031 1.61.244.625.366 1.316.366 2.073M77.865 40.282c-.563.02-1.04.063-1.432.132a3.94 3.94 0 0 0-.958.272c-.245.114-.422.247-.531.401a.87.87 0 0 0-.163.514c0 .18.03.334.088.464.06.13.14.237.241.32.102.082.221.142.358.18.137.038.286.057.447.057a2.328 2.328 0 0 0 1.531-.532c.142-.113.282-.243.419-.39v-1.418zm-4.055-2.998a4.12 4.12 0 0 1 1.307-.858c.47-.189.987-.284 1.55-.284.41 0 .775.068 1.091.202.317.135.584.323.801.564.218.24.382.53.493.865.111.335.167.706.167 1.113v4.594h-.617a.584.584 0 0 1-.312-.068c-.071-.045-.128-.129-.17-.251l-.15-.631c-.183.17-.365.32-.545.45-.18.13-.367.24-.564.333a2.878 2.878 0 0 1-.627.21 3.55 3.55 0 0 1-.737.07c-.284 0-.55-.039-.798-.117a1.692 1.692 0 0 1-1.085-.96 2.075 2.075 0 0 1-.159-.844c0-.284.077-.557.23-.819.154-.262.405-.497.752-.705.347-.208.801-.378 1.361-.51.56-.133 1.249-.209 2.067-.228v-.524c0-.544-.116-.95-.348-1.22-.231-.269-.572-.404-1.02-.404-.303 0-.557.038-.763.114-.205.076-.383.16-.531.251-.15.093-.28.177-.39.252a.603.603 0 0 1-.344.114.393.393 0 0 1-.245-.078.65.65 0 0 1-.166-.185l-.248-.446zM83.238 43.593c-.581 0-1.029-.163-1.343-.489-.314-.326-.472-.792-.472-1.397v-4.31h-.836a.288.288 0 0 1-.202-.074c-.055-.05-.082-.124-.082-.224v-.56l1.17-.163.312-2.148a.334.334 0 0 1 .11-.188.317.317 0 0 1 .209-.067h.702v2.417h2.041v1.007h-2.041v4.218c0 .284.07.495.209.635.14.14.318.209.535.209a.978.978 0 0 0 .33-.05c.092-.033.171-.07.237-.11.066-.04.123-.076.17-.11a.23.23 0 0 1 .128-.05.17.17 0 0 1 .11.033.398.398 0 0 1 .081.103l.412.666a2.388 2.388 0 0 1-.809.482 2.82 2.82 0 0 1-.97.17M89.987 40.282c-.562.02-1.04.063-1.432.132a3.94 3.94 0 0 0-.957.272c-.246.114-.423.247-.531.401a.87.87 0 0 0-.164.514c0 .18.03.334.09.464.058.13.138.237.24.32.102.082.221.142.358.18.137.038.286.057.447.057a2.328 2.328 0 0 0 1.531-.532c.142-.113.281-.243.418-.39v-1.418zm-4.055-2.998a4.12 4.12 0 0 1 1.308-.858c.47-.189.987-.284 1.55-.284.41 0 .774.068 1.09.202.318.135.585.323.802.564.217.24.382.53.493.865.11.335.166.706.166 1.113v4.594h-.616a.584.584 0 0 1-.312-.068c-.071-.045-.128-.129-.17-.251l-.15-.631c-.184.17-.366.32-.545.45-.18.13-.368.24-.564.333a2.878 2.878 0 0 1-.627.21 3.55 3.55 0 0 1-.738.07c-.283 0-.549-.039-.797-.117a1.692 1.692 0 0 1-1.085-.96 2.075 2.075 0 0 1-.16-.844c0-.284.078-.557.231-.819.154-.262.404-.497.752-.705.347-.208.8-.378 1.36-.51.56-.133 1.25-.209 2.067-.228v-.524c0-.544-.116-.95-.347-1.22-.232-.269-.572-.404-1.021-.404-.302 0-.556.038-.762.114-.206.076-.383.16-.532.251-.149.093-.279.177-.39.252a.603.603 0 0 1-.343.114.393.393 0 0 1-.245-.078.65.65 0 0 1-.167-.185l-.248-.446zM100.146 38.539c.383 0 .72-.05 1.01-.15.29-.099.534-.24.73-.421.196-.182.344-.4.443-.652.1-.253.15-.533.15-.84 0-.62-.193-1.106-.579-1.46-.385-.355-.97-.533-1.754-.533h-1.574v4.056h1.574zm0-5.24c.652 0 1.22.076 1.701.227.482.152.882.366 1.198.642.317.276.552.61.706 1.003.153.392.23.827.23 1.305 0 .477-.083.915-.248 1.315-.165.399-.409.743-.73 1.031a3.34 3.34 0 0 1-1.202.67c-.48.158-1.031.238-1.655.238h-1.574v3.75h-1.51V33.3h3.084zM108.064 42.501c.68 0 1.189-.229 1.525-.687.335-.459.503-1.104.503-1.936 0-.831-.168-1.478-.503-1.938-.336-.461-.844-.692-1.525-.692-.69 0-1.204.23-1.542.692-.337.46-.506 1.107-.506 1.938 0 .832.169 1.477.506 1.936.338.458.852.687 1.542.687m0-6.337c.53 0 1.008.086 1.436.258.428.173.792.421 1.092.745.3.324.53.713.69 1.17.162.456.242.967.242 1.534 0 .567-.08 1.08-.241 1.539-.16.458-.391.848-.691 1.17-.3.32-.664.568-1.092.74a3.807 3.807 0 0 1-1.436.259 3.827 3.827 0 0 1-1.442-.259 3.048 3.048 0 0 1-1.096-.74 3.29 3.29 0 0 1-.698-1.17 4.568 4.568 0 0 1-.244-1.539c0-.567.081-1.078.244-1.534.163-.457.396-.846.698-1.17a3.027 3.027 0 0 1 1.096-.745 3.827 3.827 0 0 1 1.442-.258"/>
            <mask id="d" fill="#fff">
                <use xlink:href="#c"/>
            </mask>
            <path fill="#FFF" d="M113.126 43.48h1.383v-7.203h-1.383v7.203zm1.645-9.429a.88.88 0 0 1-.078.365.96.96 0 0 1-1.248.51.975.975 0 0 1-.507-.51.935.935 0 0 1 0-.737.97.97 0 0 1 .507-.51.948.948 0 0 1 .73 0 .966.966 0 0 1 .596.882zM117.812 37.277a4.88 4.88 0 0 1 .489-.454 2.905 2.905 0 0 1 1.864-.66c.397 0 .746.067 1.046.2.3.131.552.317.755.556.203.238.357.525.461.86.104.336.156.707.156 1.114v4.587h-1.39v-4.587c0-.515-.118-.916-.354-1.202-.236-.286-.598-.429-1.085-.429-.354 0-.686.084-.996.252-.31.168-.596.396-.861.684v5.282h-1.382v-7.203h.829c.194 0 .314.092.362.276l.106.724zM126.603 43.593c-.582 0-1.03-.163-1.344-.489-.314-.326-.471-.792-.471-1.397v-4.31h-.837a.288.288 0 0 1-.202-.074c-.054-.05-.081-.124-.081-.224v-.56l1.17-.163.311-2.148a.334.334 0 0 1 .11-.188.317.317 0 0 1 .21-.067h.701v2.417h2.042v1.007h-2.042v4.218c0 .284.07.495.21.635.139.14.317.209.535.209a.978.978 0 0 0 .33-.05c.091-.033.17-.07.237-.11.066-.04.123-.076.17-.11a.23.23 0 0 1 .127-.05.17.17 0 0 1 .11.033.398.398 0 0 1 .082.103l.411.666a2.388 2.388 0 0 1-.808.482 2.82 2.82 0 0 1-.971.17M133.727 37.518a.383.383 0 0 1-.12.13.308.308 0 0 1-.163.04.521.521 0 0 1-.252-.078 5.287 5.287 0 0 0-.333-.17 3.23 3.23 0 0 0-.457-.17 2.204 2.204 0 0 0-.624-.079c-.199 0-.38.025-.542.075-.163.05-.302.118-.415.206a.918.918 0 0 0-.262.311.839.839 0 0 0-.093.387c0 .18.054.328.16.446.106.119.246.22.418.305.173.085.369.163.589.23.22.07.444.141.673.217.23.075.454.162.674.259.22.097.415.217.588.361.172.144.312.318.418.521.107.203.16.452.16.745 0 .335-.06.646-.181.932-.12.286-.298.533-.532.74a2.516 2.516 0 0 1-.868.49c-.345.118-.74.177-1.184.177-.496 0-.955-.083-1.375-.248a3.445 3.445 0 0 1-1.057-.631l.326-.532a.422.422 0 0 1 .142-.152.424.424 0 0 1 .227-.053c.09 0 .182.033.277.099.094.066.208.138.34.216.132.078.293.15.482.213.189.064.425.096.709.096.236 0 .442-.03.617-.089.174-.06.32-.14.436-.241a.975.975 0 0 0 .258-.351 1.05 1.05 0 0 0 .085-.418.703.703 0 0 0-.16-.472 1.374 1.374 0 0 0-.417-.322 3.39 3.39 0 0 0-.592-.234 27.318 27.318 0 0 1-.68-.213 6.973 6.973 0 0 1-.681-.262c-.223-.1-.42-.225-.592-.376a1.746 1.746 0 0 1-.419-.553 1.795 1.795 0 0 1-.16-.794c0-.279.059-.546.175-.8.115-.256.283-.48.503-.674a2.48 2.48 0 0 1 .815-.465 3.284 3.284 0 0 1 1.11-.173c.477 0 .908.075 1.293.226.386.152.715.36.99.624l-.306.504zM142.39 38.205c.388 0 .73-.047 1.025-.142a2.08 2.08 0 0 0 .74-.4c.2-.173.348-.378.447-.617.1-.238.15-.502.15-.79 0-.586-.194-1.028-.579-1.326-.385-.298-.963-.447-1.733-.447h-1.425v3.722h1.375zm4.75 5.275h-1.347c-.27 0-.465-.107-.588-.32l-2.517-3.53a.75.75 0 0 0-.262-.251c-.095-.05-.237-.075-.426-.075h-.985v4.176h-1.51V33.3h2.935c.657 0 1.223.067 1.698.202.475.134.867.326 1.177.574.309.248.538.547.687.897.15.35.224.742.224 1.176 0 .355-.055.688-.163 1-.11.312-.269.592-.479.84-.21.248-.467.462-.77.642-.302.18-.644.316-1.027.41.189.114.352.273.49.476l2.863 3.963zM152.464 39.077c0-.274-.039-.527-.117-.758a1.723 1.723 0 0 0-.344-.603 1.563 1.563 0 0 0-.553-.397 1.87 1.87 0 0 0-.751-.142c-.582 0-1.039.168-1.372.504-.333.336-.545.8-.634 1.396h3.771zm1.141 3.375c-.17.198-.366.37-.588.514a3.395 3.395 0 0 1-.709.35c-.25.09-.51.157-.776.199a5.02 5.02 0 0 1-.79.064c-.497 0-.957-.084-1.38-.252a3.065 3.065 0 0 1-1.098-.737 3.363 3.363 0 0 1-.723-1.205c-.173-.48-.26-1.032-.26-1.656 0-.5.079-.967.235-1.4.156-.432.379-.81.67-1.13.29-.321.646-.575 1.067-.759.42-.184.893-.276 1.417-.276.44 0 .845.072 1.216.216.371.144.691.353.96.627.27.274.482.612.635 1.014.154.402.23.86.23 1.375 0 .213-.023.356-.07.43-.047.072-.135.109-.262.109h-4.722c.014.43.076.805.184 1.124.11.319.26.584.45.797.192.213.42.372.685.475.264.104.56.156.886.156.307 0 .573-.035.797-.106.225-.071.419-.148.582-.23.163-.083.3-.16.41-.231a.568.568 0 0 1 .295-.106c.113 0 .2.042.262.127l.397.51zM165.14 36.277l-2.319 7.203h-1.106c-.132 0-.222-.088-.269-.263l-1.517-4.693a5.245 5.245 0 0 1-.1-.35 8.404 8.404 0 0 1-.077-.352 5.112 5.112 0 0 1-.177.716l-1.539 4.68c-.047.174-.149.262-.305.262h-1.049l-2.325-7.203h1.092c.108 0 .2.026.273.078a.366.366 0 0 1 .145.198l1.297 4.424c.043.18.08.355.114.525.033.17.063.34.092.51.042-.17.088-.34.138-.51l.152-.525 1.44-4.452a.367.367 0 0 1 .134-.195.39.39 0 0 1 .241-.074h.603a.43.43 0 0 1 .259.074.36.36 0 0 1 .138.195l1.404 4.452c.052.18.101.356.148.528.048.173.09.347.128.521.028-.17.061-.341.1-.514.037-.172.08-.35.127-.535l1.318-4.424a.366.366 0 0 1 .146-.198.424.424 0 0 1 .251-.078h1.043zM170.102 40.282c-.563.02-1.04.063-1.432.132a3.94 3.94 0 0 0-.957.272c-.246.114-.423.247-.532.401a.87.87 0 0 0-.163.514c0 .18.03.334.089.464s.14.237.24.32c.102.082.222.142.359.18.137.038.286.057.446.057a2.328 2.328 0 0 0 1.531-.532c.142-.113.282-.243.419-.39v-1.418zm-4.055-2.998a4.12 4.12 0 0 1 1.308-.858c.47-.189.986-.284 1.549-.284.411 0 .775.068 1.092.202.316.135.583.323.8.564.218.24.382.53.493.865.111.335.167.706.167 1.113v4.594h-.617a.584.584 0 0 1-.312-.068c-.07-.045-.127-.129-.17-.251l-.149-.631c-.184.17-.366.32-.546.45-.18.13-.367.24-.563.333a2.878 2.878 0 0 1-.628.21 3.55 3.55 0 0 1-.737.07c-.283 0-.55-.039-.797-.117a1.692 1.692 0 0 1-1.085-.96 2.075 2.075 0 0 1-.16-.844c0-.284.077-.557.23-.819.154-.262.405-.497.752-.705.348-.208.801-.378 1.361-.51.56-.133 1.25-.209 2.067-.228v-.524c0-.544-.116-.95-.347-1.22-.232-.269-.572-.404-1.021-.404-.303 0-.557.038-.762.114-.206.076-.383.16-.532.251-.149.093-.279.177-.39.252a.603.603 0 0 1-.344.114.393.393 0 0 1-.244-.078.65.65 0 0 1-.167-.185l-.248-.446zM174.618 37.66c.231-.473.51-.844.836-1.114.326-.269.719-.404 1.177-.404.156 0 .304.018.443.054.14.035.261.088.365.16l-.092 1.041c-.033.128-.111.192-.234.192a1.7 1.7 0 0 1-.298-.04 2.206 2.206 0 0 0-.425-.038 1.67 1.67 0 0 0-.588.095c-.17.064-.323.159-.458.284a1.931 1.931 0 0 0-.358.46c-.104.183-.2.39-.29.621v4.509h-1.383v-7.203h.794c.151 0 .254.027.309.082.054.054.093.15.117.287l.085 1.013zM182.898 38.021c-.227-.298-.472-.506-.734-.624a2.126 2.126 0 0 0-.882-.177c-.634 0-1.124.228-1.471.684-.348.456-.522 1.121-.522 1.996 0 .458.04.85.117 1.173.078.324.192.588.34.794.15.206.333.357.55.454.218.097.463.145.737.145.402 0 .75-.09 1.043-.27.293-.179.567-.432.822-.758v-3.417zm1.39-5.005V43.48h-.837c-.194 0-.314-.092-.362-.277l-.12-.83a3.819 3.819 0 0 1-1.046.876c-.39.22-.84.33-1.35.33-.412 0-.784-.08-1.117-.241a2.35 2.35 0 0 1-.854-.705 3.366 3.366 0 0 1-.546-1.152 5.913 5.913 0 0 1-.191-1.581c0-.534.07-1.03.212-1.49a3.56 3.56 0 0 1 .617-1.19 2.91 2.91 0 0 1 .978-.79 2.861 2.861 0 0 1 1.298-.288c.434 0 .804.071 1.11.213.304.142.577.343.818.603v-3.942h1.39z" mask="url(#d)"/>
        </g>
    </g>
</svg>
