<svg xmlns="http://www.w3.org/2000/svg" width="52" height="52" viewBox="0 0 52 52">
    <g fill="none" fill-rule="evenodd">
        <path fill="#213142" d="M26 52C11.641 52 0 40.359 0 26S11.641 0 26 0s26 11.641 26 26-11.641 26-26 26"/>
        <path fill="#FFF" d="M11.311 30.559l6.028-6.737a2.95 2.95 0 0 1-.044-.507 3.003 3.003 0 0 1 3.008-2.993 3.007 3.007 0 0 1 2.986 2.63l1.997 1.424a3.008 3.008 0 0 1 2.193-.126l10.686-10.058a3.032 3.032 0 0 1-.021-.358c0-.024.002-.046.003-.07H13.653a2.383 2.383 0 0 0-2.384 2.383V30.554l.042.005"/>
        <path fill="#FFF" d="M40.593 16.774L29.55 27.169a3.003 3.003 0 0 1-3.006 2.918 3.007 3.007 0 0 1-2.98-2.588l-2.036-1.452a3.01 3.01 0 0 1-1.629.233l-6.067 6.779c.008.05.012.1.018.15H26.376c.047.02.101.049.178.089l12.738 6.6a.893.893 0 0 0 1.05-.163.88.88 0 0 0 .146-1.044l-2.673-4.86a.456.456 0 0 1 .19-.622h.112a2.48 2.48 0 0 0 2.457-2.143.573.573 0 0 0 .017-.092c.004-.06.006-.117.006-.178V16.774h-.004"/>
        <path fill="#FFF" d="M41.151 12a1.842 1.842 0 0 0-1.849 1.834c0 .261.056.508.155.733L27.68 25.651a1.846 1.846 0 0 0-1.137-.39c-.5 0-.953.197-1.286.517l-3.123-2.226c.01-.078.017-.157.017-.238a1.842 1.842 0 0 0-1.849-1.834c-1.02 0-1.848.822-1.848 1.834 0 .285.067.553.184.793l-6.953 7.771a1.86 1.86 0 0 0-.826-.195 1.842 1.842 0 0 0-1.849 1.834c0 1.013.828 1.834 1.85 1.834a1.842 1.842 0 0 0 1.848-1.834 1.82 1.82 0 0 0-.166-.755l6.972-7.791a1.853 1.853 0 0 0 2.051-.32l3.141 2.24a1.842 1.842 0 0 0 1.837 2.038 1.842 1.842 0 0 0 1.806-2.222L40.3 15.46c.254.132.544.208.852.208a1.842 1.842 0 0 0 1.85-1.834A1.842 1.842 0 0 0 41.15 12"/>
    </g>
</svg>
