<svg xmlns="http://www.w3.org/2000/svg" xmlns:xlink="http://www.w3.org/1999/xlink" width="52" height="52" viewBox="0 0 52 52">
    <defs>
        <path id="a" d="M26 0C11.641 0 0 11.64 0 26c0 14.359 11.641 26 26 26 14.36 0 26-11.641 26-26C52 11.64 40.36 0 26 0z"/>
        <linearGradient id="b" x1="0%" y1="0%" y2="100%">
            <stop offset="0%" stop-color="#56BEF4"/>
            <stop offset="65.578%" stop-color="#4991EB"/>
            <stop offset="100%" stop-color="#5D9BEC"/>
        </linearGradient>
    </defs>
    <g fill="none" fill-rule="evenodd">
        <g>
            <mask id="c" fill="#fff">
                <use xlink:href="#a"/>
            </mask>
            <path fill="url(#b)" d="M26 0C11.641 0 0 11.64 0 26c0 14.359 11.641 26 26 26 14.36 0 26-11.641 26-26C52 11.64 40.36 0 26 0z" mask="url(#c)"/>
        </g>
        <g fill="#FFF">
            <path d="M23.737 26.088c.619.685 1.438 1.062 2.307 1.062h.012c.873-.004 1.694-.387 2.31-1.08l10.069-11.317a.452.452 0 0 0-.322-.752H13.946c-.056 0-.112.001-.167.004-.367.027-.532.477-.286.75l10.244 11.333zM12.508 15.405a.451.451 0 0 0-.758.142c-.09.246-.138.51-.138.786V30.85c0 .06.003.118.007.175.029.377.493.544.765.28l7.41-7.189a.452.452 0 0 0 .02-.627l-7.306-8.083z"/>
            <path d="M37.657 33.851a.452.452 0 0 1 .396-.668c.268 0 .523-.045.762-.128a.451.451 0 0 0 .158-.749l-7.495-7.27a.453.453 0 0 0-.652.023l-1.588 1.787c-.84.943-1.969 1.466-3.178 1.47h-.017c-1.203 0-2.329-.512-3.172-1.445l-1.668-1.846a.452.452 0 0 0-.649-.02l-7.528 7.301a.45.45 0 0 0 .16.75c.237.082.493.127.76.127h12.091c.3 0 .302 0 .57.141l12.5 6.53a.873.873 0 0 0 1.03-.163.873.873 0 0 0 .143-1.032l-2.623-4.808zM40.388 16.334c0-.301-.058-.588-.162-.852a.452.452 0 0 0-.758-.134l-7.264 8.163a.453.453 0 0 0 .023.625l7.39 7.168c.27.263.735.097.764-.28.005-.058.007-.116.007-.175V16.333z"/>
        </g>
    </g>
</svg>
