<svg xmlns="http://www.w3.org/2000/svg" width="54" height="54" viewBox="0 0 54 54">
    <g fill="none" fill-rule="evenodd">
        <path fill="#FFF" stroke="#E4E4E4" stroke-width=".5" d="M27 53C12.641 53 1 41.359 1 27S12.641 1 27 1s26 11.641 26 26-11.641 26-26 26"/>
        <path fill="#5D9BEC" d="M42.825 19.686a2.58 2.58 0 1 1-5.16 0 2.58 2.58 0 0 1 5.16 0M42.825 34.37a2.58 2.58 0 1 1-5.16 0 2.58 2.58 0 0 1 5.16 0M16.335 19.686a2.58 2.58 0 1 1-5.16 0 2.58 2.58 0 0 1 5.16 0M16.335 34.37a2.58 2.58 0 1 1-5.16 0 2.58 2.58 0 0 1 5.16 0"/>
        <path fill="#B0DBFF" d="M13.755 31.238c.42 0 .82.084 1.186.235v-8.89a3.12 3.12 0 0 1-2.425-.021v8.933c.38-.165.799-.257 1.239-.257M37.155 20.181l-10.157 5.864-10.154-5.862a3.132 3.132 0 0 1-1.284 2.06l11.346 6.55.092.053.093-.053 11.348-6.552a3.135 3.135 0 0 1-1.284-2.06M40.245 31.238c.44 0 .856.092 1.236.255v-8.93a3.11 3.11 0 0 1-2.425.02v8.89a3.117 3.117 0 0 1 1.19-.235"/>
        <path fill="#B0DBFF" d="M27.29 11.173l-.008-.005-.003-.001a.503.503 0 0 0-.057-.028l-.006-.002-.007-.003-.053-.017-.017-.005a.987.987 0 0 0-.053-.01l-.018-.003a.487.487 0 0 0-.066-.004h-.007a.482.482 0 0 0-.065.004h-.004l-.013.003a.716.716 0 0 0-.053.01l-.02.005-.06.02a.513.513 0 0 0-.061.03h-.002l-.01.006-10.803 6.237c.285.269.518.59.686.949l9.826-5.673v7.354c0 .32.262.583.583.583a.584.584 0 0 0 .583-.583v-7.354l9.828 5.674c.168-.358.4-.68.686-.95L27.29 11.174z"/>
        <path fill="#5D9BEC" d="M29.578 27.028a2.58 2.58 0 1 1-5.16 0 2.58 2.58 0 0 1 5.16 0"/>
        <path fill="#B0DBFF" d="M37.388 35.652l-9.807 5.662V33.96a.583.583 0 0 0-1.165 0v7.354l-9.805-5.661c-.162.36-.39.686-.67.959l10.766 6.215.008.005.003.002a.61.61 0 0 0 .058.027l.005.002.006.002a.322.322 0 0 0 .055.018l.016.005c.018.004.035.008.053.01l.018.003a.532.532 0 0 0 .138 0h.005l.011-.002.055-.011.017-.005a.448.448 0 0 0 .123-.05h.002l.01-.006 10.767-6.216a3.142 3.142 0 0 1-.669-.96"/>
    </g>
</svg>
