<svg xmlns="http://www.w3.org/2000/svg" width="24" height="24" viewBox="0 0 24 24">
    <g fill="none" fill-rule="evenodd">
        <path fill="#FFF" d="M-292-309H68v640h-360z"/>
        <g>
            <circle cx="12" cy="12" r="9" fill="#DDD"/>
            <path fill="#FFF" d="M12.912 6.432v4.576c0 .485-.024.961-.072 1.428a30.38 30.38 0 0 1-.192 1.484h-1.336a30.38 30.38 0 0 1-.192-1.484 13.95 13.95 0 0 1-.072-1.428V6.432h1.864zm-2.168 10.48c0-.165.03-.323.092-.472.062-.15.147-.277.256-.384a1.26 1.26 0 0 1 .868-.352 1.21 1.21 0 0 1 .856.352 1.21 1.21 0 0 1 .352.856c0 .17-.032.33-.096.476a1.158 1.158 0 0 1-.64.632 1.23 1.23 0 0 1-.472.092 1.251 1.251 0 0 1-.868-.344 1.137 1.137 0 0 1-.256-.38 1.221 1.221 0 0 1-.092-.476z"/>
        </g>
    </g>
</svg>
