<svg xmlns="http://www.w3.org/2000/svg" width="80" height="80" viewBox="0 0 80 80">
    <g fill="none" fill-rule="evenodd">
        <path d="M0 0h80v80H0z"/>
        <path fill="#4187F7" d="M75.528 17.432a.066.066 0 0 1-.017-.035c-.017-.026-.035-.052-.052-.086-.008-.017-.026-.035-.034-.06a.383.383 0 0 0-.069-.095c-.017-.026-.043-.052-.06-.087-.008-.017-.026-.025-.034-.043a.151.151 0 0 0-.035-.043l-.051-.052c-.009-.008-.017-.017-.017-.025a2.987 2.987 0 0 0-.507-.432c-.025-.017-.051-.034-.068-.043a.065.065 0 0 0-.035-.017 2.651 2.651 0 0 0-1.828-.31h-.017l-.103.025c-.009 0-.026.009-.035.009-.051.017-.103.026-.163.052-.017.008-.043.008-.06.017-.017.009-.026.009-.043.017l-66.364 20.2-.086.026a2.65 2.65 0 0 0-1.631 2.104 2.623 2.623 0 0 0 1.03 2.458l.017.01L20.16 51.267l2.3 20.113a2.626 2.626 0 0 0 2.627 2.579c.893 0 1.7-.449 2.172-1.165l.008.01 10.902-9.152L54.891 75.15c.447.328.996.518 1.554.518a2.611 2.611 0 0 0 2.558-2.061l16.645-53.941c.043-.121.086-.242.112-.363l.008-.034.009-.052a2.515 2.515 0 0 0-.25-1.785z"/>
        <path fill="#4187F7" d="M6.193 38.813a.617.617 0 0 1 .36-.492l59.403-18.069L21.044 49.19a.972.972 0 0 0-.318.034L6.434 39.391a.619.619 0 0 1-.24-.578z"/>
        <path fill="#AFFAFF" d="M23.133 73.227c-.412-.3-.755-.823-.755-1.009l-2.266-20.924L73.974 16.56a1.49 1.49 0 0 1 .215-.13c.172-.034.189-.034.206-.034.137.018-.477-.248.172.026.648.275.523.35.249.13.111.112.128.138.137.155.077.18.086.207.094.241.009.156 0 .181 0 .207l-.051.173c-.026.06.256-.206-.12.172L30.332 57.84c-3.194 9.384-5.09 14.681-5.689 15.892-.275.557-1.49-.49-1.51-.504z"/>
        <path fill="#83CCFC" d="M24.643 73.758l5.539-15.91L38.49 63.9c-7.498 6.21-11.443 9.402-11.833 9.58-.199.09-.315.19-.503.279-.365.17-.552.297-1.007.225a.936.936 0 0 1-.504-.225z"/>
        <path fill="#4187F7" d="M57.106 73.063l-.017.052-.009.051a.65.65 0 0 1-.394.475.625.625 0 0 1-.601-.087l-.018-.017-22.773-15.663 39.332-35.103-15.52 50.292z"/>
        <g transform="translate(4 41.714)">
            <ellipse cx="10.014" cy="10.113" fill="#FEE602" stroke="#FFF" stroke-width="2.276" rx="10.014" ry="10.113"/>
            <path fill="#4187F7" fill-rule="nonzero" d="M11.304 7.174V4.967l3.717 3.862-3.717 3.86v-2.26c-2.655 0-4.514.882-5.842 2.813.531-2.759 2.125-5.517 5.842-6.068z"/>
            <path d="M3.642 3.218h12.745v12.87H3.642z"/>
        </g>
    </g>
</svg>
