<?xml version="1.0" encoding="UTF-8"?>
<svg width="200px" height="200px" viewBox="0 0 200 200" version="1.1" xmlns="http://www.w3.org/2000/svg" xmlns:xlink="http://www.w3.org/1999/xlink">
    <!-- Generator: Sketch 53.2 (72643) - https://sketchapp.com -->
    <title>tutorial1</title>
    <desc>Created with Sketch.</desc>
    <defs>
        <rect id="path-1" x="0" y="0" width="130" height="80" rx="4"></rect>
    </defs>
    <g id="For-Beta" stroke="none" stroke-width="1" fill="none" fill-rule="evenodd">
        <g id="Tutorial_1" transform="translate(-80.000000, -112.000000)">
            <g id="Group-7" transform="translate(80.000000, 112.000000)">
                <path d="M55.7682443,82.9093157 L182.371826,79.8625488 L186.288009,82.5934976 C187.360712,83.3415465 188,84.5667331 188,85.8745055 L188,88.2408447 L188,167 C188,169.209139 186.209139,171 184,171 L56.3349609,171 L55.3695841,171 C54.1967152,171 53.0829435,170.48524 52.3229496,169.591914 L49.0767822,165.776245 L51.86697,86.7669871 C51.9416836,84.6513345 53.6518856,82.9602467 55.7682443,82.9093157 Z" id="Rectangle-6-Copy-2" fill="#AFFAFF"></path>
                <path d="M52,79 L180,79 C182.209139,79 184,80.790861 184,83 L184,163 C184,165.209139 182.209139,167 180,167 L52,167 C49.790861,167 48,165.209139 48,163 L48,83 C48,80.790861 49.790861,79 52,79 Z" id="Rectangle-6" fill="#4187F7"></path>
                <path d="M166.864359,92 L166.864359,156" id="Line-3" stroke="#83CCFC" stroke-linecap="round"></path>
                <path d="M145.864359,91 L145.864359,155" id="Line-3-Copy" stroke="#83CCFC" stroke-linecap="round"></path>
                <path d="M125.864359,91 L125.864359,155" id="Line-3-Copy-2" stroke="#83CCFC" stroke-linecap="round"></path>
                <path d="M104.864359,91 L104.864359,155" id="Line-3-Copy-3" stroke="#83CCFC" stroke-linecap="round"></path>
                <path d="M83.8643586,91 L83.8643586,155" id="Line-3-Copy-4" stroke="#83CCFC" stroke-linecap="round"></path>
                <path d="M62.8643586,91 L62.8643586,155" id="Line-3-Copy-5" stroke="#83CCFC" stroke-linecap="round"></path>
                <g id="Group-6" transform="translate(7.000000, 16.000000)">
                    <path d="M6.58672201,6.80970249 L128.163086,0.55847168 L131.486399,3.79128799 C132.454088,4.73262515 133,6.02526955 133,7.37528296 L133,79 C133,81.209139 131.209139,83 129,83 L6.63420447,83 C5.46972621,83 4.36305735,82.4925493 3.60318837,81.6101612 L1.09790039,78.7009277 L2.79336613,10.7047175 C2.8454851,8.61449981 4.49861315,6.91706917 6.58672201,6.80970249 Z" id="Rectangle-6-Copy" fill="#1C3158"></path>
                    <rect id="Rectangle-6-Copy" fill="#0A224E" x="0" y="0" width="130" height="80" rx="4"></rect>
                    <g id="Group">
                        <g id="background">
                            <mask id="mask-2" fill="white">
                                <use xlink:href="#path-1"></use>
                            </mask>
                            <use id="Mask" fill="#0A224E" xlink:href="#path-1"></use>
                            <g mask="url(#mask-2)">
                                <g transform="translate(-12.000000, 36.521739)">
                                    <g>
                                        <path d="M0.0737459032,0.469565217 C-1.15380076,10.8698566 12.9436138,18.1481174 42.3659897,22.3043478 C62.1951209,25.1054282 94.1042168,22.0695652 120.080671,18.3130435 C137.398307,15.8086957 148.919545,17.1391304 154.644383,22.3043478 L154.644383,46.7217391 L0.0737459032,46.7217391 L0.0737459032,0.469565217 Z" id="Rectangle" fill="#FFFFFF" opacity="0.0790275621"></path>
                                        <path d="M0.079772601,0.451505017 C-1.11435902,-1.11371237 11.0979011,1.39063545 36.716553,7.96454849 C75.1445309,17.8254181 104.837796,21.7086695 120.227633,23.577592 C130.487525,24.8235403 141.961784,24.3931055 154.65041,22.2862876 L154.65041,46.7036789 L0.079772601,46.7036789 L0.079772601,0.451505017 Z" id="Rectangle" fill="#FFFFFF" opacity="0.0859375"></path>
                                    </g>
                                </g>
                            </g>
                        </g>
                        <path d="M25.088,34.804 C25.621336,34.804 26.1026645,34.8799992 26.532,35.032 C26.9613355,35.1840008 27.3279985,35.3946653 27.632,35.664 C27.9360015,35.9333347 28.1693325,36.2493315 28.332,36.612 C28.4946675,36.9746685 28.576,37.3666646 28.576,37.788 C28.576,38.1560018 28.5346671,38.4799986 28.452,38.76 C28.3693329,39.0400014 28.2493341,39.283999 28.092,39.492 C27.9346659,39.700001 27.7426678,39.8759993 27.516,40.02 C27.2893322,40.1640007 27.0320014,40.2839995 26.744,40.38 C27.4373368,40.5986678 27.954665,40.9319978 28.296,41.38 C28.637335,41.8280022 28.808,42.3906633 28.808,43.068 C28.808,43.6440029 28.7013344,44.1533311 28.488,44.596 C28.2746656,45.0386689 27.9866685,45.4106652 27.624,45.712 C27.2613315,46.0133348 26.8413357,46.2413326 26.364,46.396 C25.8866643,46.5506674 25.381336,46.628 24.848,46.628 C24.2666638,46.628 23.7600022,46.561334 23.328,46.428 C22.8959978,46.294666 22.5200016,46.0973346 22.2,45.836 C21.8799984,45.5746654 21.6080011,45.2546686 21.384,44.876 C21.1599989,44.4973314 20.9680008,44.0600025 20.808,43.564 L21.68,43.204 C21.8293341,43.1399997 21.9813326,43.108 22.136,43.108 C22.2746674,43.108 22.3986661,43.137333 22.508,43.196 C22.6173339,43.254667 22.701333,43.3399994 22.76,43.452 C22.8560005,43.6386676 22.9613328,43.8226658 23.076,44.004 C23.1906672,44.1853342 23.3279992,44.346666 23.488,44.488 C23.6480008,44.629334 23.8359989,44.7439996 24.052,44.832 C24.2680011,44.9200004 24.5253318,44.964 24.824,44.964 C25.1600017,44.964 25.4533321,44.9093339 25.704,44.8 C25.9546679,44.6906661 26.1639992,44.5480009 26.332,44.372 C26.5000008,44.1959991 26.6253329,44.0000011 26.708,43.784 C26.7906671,43.5679989 26.832,43.3506678 26.832,43.132 C26.832,42.8546653 26.802667,42.6026678 26.744,42.376 C26.685333,42.1493322 26.5626676,41.9560008 26.376,41.796 C26.1893324,41.6359992 25.9213351,41.5106671 25.572,41.42 C25.2226649,41.3293329 24.7546696,41.284 24.168,41.284 L24.168,39.876 C24.6533358,39.8706666 25.0559984,39.8253338 25.376,39.74 C25.6960016,39.6546662 25.9506657,39.5360008 26.14,39.384 C26.3293343,39.2319992 26.461333,39.0493344 26.536,38.836 C26.610667,38.6226656 26.648,38.3880013 26.648,38.132 C26.648,37.5826639 26.4986682,37.1680014 26.2,36.888 C25.9013318,36.6079986 25.4933359,36.468 24.976,36.468 C24.5066643,36.468 24.1173349,36.5919988 23.808,36.84 C23.4986651,37.0880012 23.2826673,37.4066647 23.16,37.796 C23.0959997,37.9986677 23.0080006,38.1439996 22.896,38.232 C22.7839994,38.3200004 22.6373342,38.364 22.456,38.364 C22.3706662,38.364 22.2800005,38.3560001 22.184,38.34 L21.144,38.156 C21.2240004,37.6013306 21.3786655,37.1146688 21.608,36.696 C21.8373345,36.2773312 22.1239983,35.9280014 22.468,35.648 C22.8120017,35.3679986 23.2066644,35.157334 23.652,35.016 C24.0973356,34.874666 24.5759974,34.804 25.088,34.804 Z M33.608,41.884 C33.207998,41.884 32.8160019,41.8146674 32.432,41.676 C32.0479981,41.5373326 31.7053348,41.3280014 31.404,41.048 C31.1026652,40.7679986 30.8613342,40.4213354 30.68,40.008 C30.4986658,39.5946646 30.408,39.1106694 30.408,38.556 C30.408,38.0386641 30.503999,37.5533356 30.696,37.1 C30.888001,36.6466644 31.1573316,36.249335 31.504,35.908 C31.8506684,35.566665 32.2666642,35.2973343 32.752,35.1 C33.2373358,34.9026657 33.7733304,34.804 34.36,34.804 C34.952003,34.804 35.4839976,34.8973324 35.956,35.084 C36.4280024,35.2706676 36.830665,35.5319983 37.164,35.868 C37.497335,36.2040017 37.7533324,36.6066643 37.932,37.076 C38.1106676,37.5453357 38.2,38.0599972 38.2,38.62 C38.2,38.9773351 38.1693336,39.3159984 38.108,39.636 C38.0466664,39.9560016 37.9586672,40.2639985 37.844,40.56 C37.7293328,40.8560015 37.5920008,41.1439986 37.432,41.424 C37.2719992,41.7040014 37.0933343,41.9853319 36.896,42.268 L34.248,46.044 C34.1573329,46.1720006 34.0226676,46.2799996 33.844,46.368 C33.6653324,46.4560004 33.4613345,46.5 33.232,46.5 L31.416,46.5 L35.008,42.012 C35.0986671,41.8999994 35.1839996,41.7906672 35.264,41.684 C35.3440004,41.5773328 35.421333,41.4706672 35.496,41.364 C35.229332,41.5346675 34.9360016,41.6639996 34.616,41.752 C34.2959984,41.8400004 33.9600018,41.884 33.608,41.884 Z M36.304,38.42 C36.304,38.1053318 36.2560005,37.8240012 36.16,37.576 C36.0639995,37.3279988 35.9280009,37.1186675 35.752,36.948 C35.5759991,36.7773325 35.3666679,36.6466671 35.124,36.556 C34.8813321,36.4653329 34.6160014,36.42 34.328,36.42 C34.0293318,36.42 33.7600012,36.4693328 33.52,36.568 C33.2799988,36.6666672 33.0760008,36.8039991 32.908,36.98 C32.7399992,37.1560009 32.6106671,37.3653321 32.52,37.608 C32.4293329,37.8506679 32.384,38.1159986 32.384,38.404 C32.384,39.0493366 32.550665,39.5413316 32.884,39.88 C33.217335,40.2186684 33.6906636,40.388 34.304,40.388 C34.6240016,40.388 34.9079988,40.3373338 35.156,40.236 C35.4040012,40.1346662 35.6133325,39.9960009 35.784,39.82 C35.9546675,39.6439991 36.0839996,39.4360012 36.172,39.196 C36.2600004,38.9559988 36.304,38.6973347 36.304,38.42 Z M43.288,46.628 C42.6906637,46.628 42.1453358,46.5480008 41.652,46.388 C41.1586642,46.2279992 40.7360018,46.0013348 40.384,45.708 C40.0319982,45.4146652 39.7586676,45.0600021 39.564,44.644 C39.3693324,44.2279979 39.272,43.7640026 39.272,43.252 C39.272,42.5693299 39.4399983,41.9920024 39.776,41.52 C40.1120017,41.0479976 40.6346631,40.6973345 41.344,40.468 C40.7786638,40.2333322 40.3560014,39.9000022 40.076,39.468 C39.7959986,39.0359978 39.656,38.516003 39.656,37.908 C39.656,37.4706645 39.7453324,37.0626686 39.924,36.684 C40.1026676,36.3053314 40.3519984,35.9760014 40.672,35.696 C40.9920016,35.4159986 41.3746644,35.1973341 41.82,35.04 C42.2653356,34.8826659 42.754664,34.804 43.288,34.804 C43.821336,34.804 44.3106644,34.8826659 44.756,35.04 C45.2013356,35.1973341 45.5839984,35.4159986 45.904,35.696 C46.2240016,35.9760014 46.4733324,36.3053314 46.652,36.684 C46.8306676,37.0626686 46.92,37.4706645 46.92,37.908 C46.92,38.516003 46.7786681,39.0359978 46.496,39.468 C46.2133319,39.9000022 45.7920028,40.2333322 45.232,40.468 C45.9413369,40.6973345 46.4639983,41.0479976 46.8,41.52 C47.1360017,41.9920024 47.304,42.5693299 47.304,43.252 C47.304,43.7640026 47.2066676,44.2279979 47.012,44.644 C46.8173324,45.0600021 46.5440018,45.4146652 46.192,45.708 C45.8399982,46.0013348 45.4173358,46.2279992 44.924,46.388 C44.4306642,46.5480008 43.8853363,46.628 43.288,46.628 Z M43.288,45.084 C43.613335,45.084 43.8986654,45.0373338 44.144,44.944 C44.3893346,44.8506662 44.5959992,44.7213342 44.764,44.556 C44.9320008,44.3906658 45.0586662,44.1933345 45.144,43.964 C45.2293338,43.7346655 45.272,43.486668 45.272,43.22 C45.272,42.5853302 45.0960018,42.105335 44.744,41.78 C44.3919982,41.454665 43.9066698,41.292 43.288,41.292 C42.6693302,41.292 42.1840018,41.454665 41.832,41.78 C41.4799982,42.105335 41.304,42.5853302 41.304,43.22 C41.304,43.486668 41.3466662,43.7346655 41.432,43.964 C41.5173338,44.1933345 41.6439992,44.3906658 41.812,44.556 C41.9800008,44.7213342 42.1866654,44.8506662 42.432,44.944 C42.6773346,45.0373338 42.962665,45.084 43.288,45.084 Z M43.288,39.74 C43.6080016,39.74 43.8773322,39.6893338 44.096,39.588 C44.3146678,39.4866662 44.490666,39.3520008 44.624,39.184 C44.757334,39.0159992 44.8519997,38.8240011 44.908,38.608 C44.9640003,38.3919989 44.992,38.1693345 44.992,37.94 C44.992,37.7213322 44.9573337,37.5133343 44.888,37.316 C44.8186663,37.1186657 44.7146674,36.9440008 44.576,36.792 C44.4373326,36.6399992 44.2613344,36.5186671 44.048,36.428 C43.8346656,36.3373329 43.5813348,36.292 43.288,36.292 C42.9946652,36.292 42.7413344,36.3373329 42.528,36.428 C42.3146656,36.5186671 42.137334,36.6399992 41.996,36.792 C41.854666,36.9440008 41.750667,37.1186657 41.684,37.316 C41.617333,37.5133343 41.584,37.7213322 41.584,37.94 C41.584,38.1693345 41.6119997,38.3919989 41.668,38.608 C41.7240003,38.8240011 41.818666,39.0159992 41.952,39.184 C42.085334,39.3520008 42.2613322,39.4866662 42.48,39.588 C42.6986678,39.6893338 42.9679984,39.74 43.288,39.74 Z M48.512,45.412 C48.512,45.2466658 48.5426664,45.0893341 48.604,44.94 C48.6653336,44.7906659 48.7506661,44.6626672 48.86,44.556 C48.9693339,44.4493328 49.0986659,44.3640003 49.248,44.3 C49.3973341,44.2359997 49.5573325,44.204 49.728,44.204 C49.8933342,44.204 50.0506659,44.2359997 50.2,44.3 C50.3493341,44.3640003 50.4773328,44.4493328 50.584,44.556 C50.6906672,44.6626672 50.7759997,44.7906659 50.84,44.94 C50.9040003,45.0893341 50.936,45.2466658 50.936,45.412 C50.936,45.5826675 50.9040003,45.7413326 50.84,45.888 C50.7759997,46.0346674 50.6906672,46.1613328 50.584,46.268 C50.4773328,46.3746672 50.3493341,46.4586664 50.2,46.52 C50.0506659,46.5813336 49.8933342,46.612 49.728,46.612 C49.5573325,46.612 49.3973341,46.5813336 49.248,46.52 C49.0986659,46.4586664 48.9693339,46.3746672 48.86,46.268 C48.7506661,46.1613328 48.6653336,46.0346674 48.604,45.888 C48.5426664,45.7413326 48.512,45.5826675 48.512,45.412 Z M60.408,40.716 C60.408,41.724005 60.3000011,42.5999963 60.084,43.344 C59.8679989,44.0880037 59.5693352,44.7026642 59.188,45.188 C58.8066648,45.6733358 58.3560026,46.0346655 57.836,46.272 C57.3159974,46.5093345 56.7546697,46.628 56.152,46.628 C55.5493303,46.628 54.9906692,46.5093345 54.476,46.272 C53.9613308,46.0346655 53.5146686,45.6733358 53.136,45.188 C52.7573314,44.7026642 52.4613344,44.0880037 52.248,43.344 C52.0346656,42.5999963 51.928,41.724005 51.928,40.716 C51.928,39.7026616 52.0346656,38.825337 52.248,38.084 C52.4613344,37.342663 52.7573314,36.7293358 53.136,36.244 C53.5146686,35.7586642 53.9613308,35.3973345 54.476,35.16 C54.9906692,34.9226655 55.5493303,34.804 56.152,34.804 C56.7546697,34.804 57.3159974,34.9226655 57.836,35.16 C58.3560026,35.3973345 58.8066648,35.7586642 59.188,36.244 C59.5693352,36.7293358 59.8679989,37.342663 60.084,38.084 C60.3000011,38.825337 60.408,39.7026616 60.408,40.716 Z M58.368,40.716 C58.368,39.8786625 58.3066673,39.1853361 58.184,38.636 C58.0613327,38.0866639 57.8973344,37.649335 57.692,37.324 C57.4866656,36.998665 57.250668,36.7706673 56.984,36.64 C56.717332,36.5093327 56.4400014,36.444 56.152,36.444 C55.8693319,36.444 55.5960013,36.5093327 55.332,36.64 C55.0679987,36.7706673 54.8346677,36.998665 54.632,37.324 C54.4293323,37.649335 54.2680006,38.0866639 54.148,38.636 C54.0279994,39.1853361 53.968,39.8786625 53.968,40.716 C53.968,41.5533375 54.0279994,42.2466639 54.148,42.796 C54.2680006,43.3453361 54.4293323,43.782665 54.632,44.108 C54.8346677,44.433335 55.0679987,44.6613327 55.332,44.792 C55.5960013,44.9226673 55.8693319,44.988 56.152,44.988 C56.4400014,44.988 56.717332,44.9226673 56.984,44.792 C57.250668,44.6613327 57.4866656,44.433335 57.692,44.108 C57.8973344,43.782665 58.0613327,43.3453361 58.184,42.796 C58.3066673,42.2466639 58.368,41.5533375 58.368,40.716 Z M69.688,40.716 C69.688,41.724005 69.5800011,42.5999963 69.364,43.344 C69.1479989,44.0880037 68.8493352,44.7026642 68.468,45.188 C68.0866648,45.6733358 67.6360026,46.0346655 67.116,46.272 C66.5959974,46.5093345 66.0346697,46.628 65.432,46.628 C64.8293303,46.628 64.2706692,46.5093345 63.756,46.272 C63.2413308,46.0346655 62.7946686,45.6733358 62.416,45.188 C62.0373314,44.7026642 61.7413344,44.0880037 61.528,43.344 C61.3146656,42.5999963 61.208,41.724005 61.208,40.716 C61.208,39.7026616 61.3146656,38.825337 61.528,38.084 C61.7413344,37.342663 62.0373314,36.7293358 62.416,36.244 C62.7946686,35.7586642 63.2413308,35.3973345 63.756,35.16 C64.2706692,34.9226655 64.8293303,34.804 65.432,34.804 C66.0346697,34.804 66.5959974,34.9226655 67.116,35.16 C67.6360026,35.3973345 68.0866648,35.7586642 68.468,36.244 C68.8493352,36.7293358 69.1479989,37.342663 69.364,38.084 C69.5800011,38.825337 69.688,39.7026616 69.688,40.716 Z M67.648,40.716 C67.648,39.8786625 67.5866673,39.1853361 67.464,38.636 C67.3413327,38.0866639 67.1773344,37.649335 66.972,37.324 C66.7666656,36.998665 66.530668,36.7706673 66.264,36.64 C65.997332,36.5093327 65.7200014,36.444 65.432,36.444 C65.1493319,36.444 64.8760013,36.5093327 64.612,36.64 C64.3479987,36.7706673 64.1146677,36.998665 63.912,37.324 C63.7093323,37.649335 63.5480006,38.0866639 63.428,38.636 C63.3079994,39.1853361 63.248,39.8786625 63.248,40.716 C63.248,41.5533375 63.3079994,42.2466639 63.428,42.796 C63.5480006,43.3453361 63.7093323,43.782665 63.912,44.108 C64.1146677,44.433335 64.3479987,44.6613327 64.612,44.792 C64.8760013,44.9226673 65.1493319,44.988 65.432,44.988 C65.7200014,44.988 65.997332,44.9226673 66.264,44.792 C66.530668,44.6613327 66.7666656,44.433335 66.972,44.108 C67.1773344,43.782665 67.3413327,43.3453361 67.464,42.796 C67.5866673,42.2466639 67.648,41.5533375 67.648,40.716 Z M80.152,41.7 C80.2426671,41.8706675 80.3266663,42.0479991 80.404,42.232 C80.4813337,42.4160009 80.557333,42.6013324 80.632,42.788 C80.706667,42.595999 80.7839996,42.4066676 80.864,42.22 C80.9440004,42.0333324 81.0293329,41.8546675 81.12,41.684 L84.544,35.276 C84.5866669,35.1959996 84.6306664,35.1320002 84.676,35.084 C84.7213336,35.0359998 84.7719997,35.0013334 84.828,34.98 C84.8840003,34.9586666 84.9466663,34.9453334 85.016,34.94 C85.0853337,34.9346666 85.1679995,34.932 85.264,34.932 L86.888,34.932 L86.888,46.5 L84.992,46.5 L84.992,39.028 C84.992,38.8893326 84.996,38.7373342 85.004,38.572 C85.012,38.4066658 85.0239999,38.2386675 85.04,38.068 L81.544,44.628 C81.4639996,44.7773341 81.3600006,44.8933329 81.232,44.976 C81.1039994,45.0586671 80.9546675,45.1 80.784,45.1 L80.488,45.1 C80.3173325,45.1 80.1680006,45.0586671 80.04,44.976 C79.9119994,44.8933329 79.8080004,44.7773341 79.728,44.628 L76.184,38.044 C76.2053334,38.2200009 76.22,38.3919992 76.228,38.56 C76.236,38.7280008 76.24,38.8839993 76.24,39.028 L76.24,46.5 L74.344,46.5 L74.344,34.932 L75.968,34.932 C76.0640005,34.932 76.1466663,34.9346666 76.216,34.94 C76.2853337,34.9453334 76.3479997,34.9586666 76.404,34.98 C76.4600003,35.0013334 76.5119998,35.0359998 76.56,35.084 C76.6080002,35.1320002 76.6533331,35.1959996 76.696,35.276 L80.152,41.7 Z M99.496,40.716 C99.496,41.5640042 99.3546681,42.3426631 99.072,43.052 C98.7893319,43.7613369 98.3920026,44.3719974 97.88,44.884 C97.3679974,45.3960026 96.7520036,45.7933319 96.032,46.076 C95.3119964,46.3586681 94.514671,46.5 93.64,46.5 L89.224,46.5 L89.224,34.932 L93.64,34.932 C94.514671,34.932 95.3119964,35.0746652 96.032,35.36 C96.7520036,35.6453348 97.3679974,36.0426641 97.88,36.552 C98.3920026,37.0613359 98.7893319,37.6706631 99.072,38.38 C99.3546681,39.0893369 99.496,39.8679958 99.496,40.716 Z M97.296,40.716 C97.296,40.0813302 97.2106675,39.5120025 97.04,39.008 C96.8693325,38.5039975 96.6266682,38.0773351 96.312,37.728 C95.9973318,37.3786649 95.6146689,37.1106676 95.164,36.924 C94.7133311,36.7373324 94.2053362,36.644 93.64,36.644 L91.392,36.644 L91.392,44.788 L93.64,44.788 C94.2053362,44.788 94.7133311,44.6946676 95.164,44.508 C95.6146689,44.3213324 95.9973318,44.0533351 96.312,43.704 C96.6266682,43.3546649 96.8693325,42.9280025 97.04,42.424 C97.2106675,41.9199975 97.296,41.3506698 97.296,40.716 Z M108.712,34.932 L108.712,36.7 L105.232,36.7 L105.232,46.5 L103.08,46.5 L103.08,36.7 L99.584,36.7 L99.584,34.932 L108.712,34.932 Z" id="398.00-MDT" fill="#FFFFFF"></path>
                    </g>
                </g>
                <g id="Group-3" transform="translate(31.000000, 145.000000)" fill="#FFF490" stroke="#FEE602" stroke-width="2">
                    <path d="M2,37 C1.44771525,37 1,37.4477153 1,38 L1,42 C1,42.5522847 1.44771525,43 2,43 L22,43 C22.5522847,43 23,42.5522847 23,42 L23,38 C23,37.4477153 22.5522847,37 22,37 L2,37 Z" id="Rectangle-5"></path>
                    <path d="M2,25 C1.44771525,25 1,25.4477153 1,26 L1,30 C1,30.5522847 1.44771525,31 2,31 L22,31 C22.5522847,31 23,30.5522847 23,30 L23,26 C23,25.4477153 22.5522847,25 22,25 L2,25 Z" id="Rectangle-5-Copy-3"></path>
                    <rect id="Rectangle-5-Copy" x="1" y="31" width="22" height="6" rx="2"></rect>
                    <path d="M2,19 C1.44771525,19 1,19.4477153 1,20 L1,24 C1,24.5522847 1.44771525,25 2,25 L22,25 C22.5522847,25 23,24.5522847 23,24 L23,20 C23,19.4477153 22.5522847,19 22,19 L2,19 Z" id="Rectangle-5-Copy-4"></path>
                    <rect id="Rectangle-5-Copy-2" x="1" y="7" width="22" height="6" rx="2"></rect>
                    <rect id="Rectangle-5-Copy-6" x="1" y="1" width="22" height="6" rx="2"></rect>
                    <path d="M2,13 C1.44771525,13 1,13.4477153 1,14 L1,18 C1,18.5522847 1.44771525,19 2,19 L22,19 C22.5522847,19 23,18.5522847 23,18 L23,14 C23,13.4477153 22.5522847,13 22,13 L2,13 Z" id="Rectangle-5-Copy-5"></path>
                </g>
                <g id="Group-3-Copy" transform="translate(49.000000, 154.000000)" fill="#FFF490" stroke="#FEE602" stroke-width="2">
                    <path d="M2,25 C1.44771525,25 1,25.4477153 1,26 L1,30 C1,30.5522847 1.44771525,31 2,31 L22,31 C22.5522847,31 23,30.5522847 23,30 L23,26 C23,25.4477153 22.5522847,25 22,25 L2,25 Z" id="Rectangle-5-Copy-3"></path>
                    <rect id="Rectangle-5-Copy" x="1" y="31" width="22" height="6" rx="2"></rect>
                    <path d="M2,19 C1.44771525,19 1,19.4477153 1,20 L1,24 C1,24.5522847 1.44771525,25 2,25 L22,25 C22.5522847,25 23,24.5522847 23,24 L23,20 C23,19.4477153 22.5522847,19 22,19 L2,19 Z" id="Rectangle-5-Copy-4"></path>
                    <rect id="Rectangle-5-Copy-2" x="1" y="7" width="22" height="6" rx="2"></rect>
                    <rect id="Rectangle-5-Copy-6" x="1" y="1" width="22" height="6" rx="2"></rect>
                    <path d="M2,13 C1.44771525,13 1,13.4477153 1,14 L1,18 C1,18.5522847 1.44771525,19 2,19 L22,19 C22.5522847,19 23,18.5522847 23,18 L23,14 C23,13.4477153 22.5522847,13 22,13 L2,13 Z" id="Rectangle-5-Copy-5"></path>
                </g>
                <g id="Group-4" transform="translate(61.000000, 112.000000)" stroke="#FFFFFF">
                    <polyline id="Line-2" stroke-width="2" stroke-linecap="round" stroke-linejoin="round" points="2 31 22.7446053 11 43.4892106 28 64.2338158 8 84.9784211 20.679442 105.723026 2"></polyline>
                    <circle id="Oval-6" fill="#4187F7" cx="106" cy="2" r="2"></circle>
                    <circle id="Oval-6-Copy" fill="#4187F7" cx="85" cy="21" r="2"></circle>
                    <circle id="Oval-6-Copy-2" fill="#4187F7" cx="64" cy="8" r="2"></circle>
                    <circle id="Oval-6-Copy-3" fill="#4187F7" cx="44" cy="28" r="2"></circle>
                    <circle id="Oval-6-Copy-4" fill="#4187F7" cx="23" cy="11" r="2"></circle>
                    <circle id="Oval-6-Copy-5" fill="#4187F7" cx="2" cy="31" r="2"></circle>
                </g>
                <g id="Group-4" transform="translate(15.000000, 158.000000)">
                    <circle id="Oval-4-Copy-3" fill="#FEE602" cx="30" cy="27" r="12"></circle>
                    <circle id="Oval-4-Copy-4" fill="#FEE602" cx="24" cy="12" r="12"></circle>
                    <circle id="Oval-4-Copy-5" fill="#FEE602" cx="14" cy="27" r="12"></circle>
                    <circle id="Oval-4" stroke="#FEE602" stroke-width="2" fill="#FFF490" cx="12" cy="26" r="11"></circle>
                    <circle id="Oval-4-Copy" stroke="#FEE602" stroke-width="2" fill="#FFF490" cx="21" cy="12" r="11"></circle>
                    <circle id="Oval-4-Copy-2" stroke="#FEE602" stroke-width="2" fill="#FFF490" cx="28" cy="26" r="11"></circle>
                </g>
            </g>
        </g>
    </g>
</svg>