<svg xmlns="http://www.w3.org/2000/svg" xmlns:xlink="http://www.w3.org/1999/xlink" width="200" height="200" viewBox="0 0 200 200">
    <defs>
        <rect id="a" width="130" height="80" rx="4"/>
    </defs>
    <g fill="none" fill-rule="evenodd">
        <path fill="#AFFAFF" d="M55.768 82.91l126.604-3.047 3.916 2.73A4 4 0 0 1 188 85.875V167a4 4 0 0 1-4 4H55.37a4 4 0 0 1-3.047-1.408l-3.246-3.816 2.79-79.009a4 4 0 0 1 3.901-3.858z"/>
        <rect width="136" height="88" x="48" y="79" fill="#4187F7" rx="4"/>
        <path stroke="#83CCFC" stroke-linecap="round" d="M166.864 92v64M145.864 91v64M125.864 91v64M104.864 91v64M83.864 91v64M62.864 91v64"/>
        <g transform="translate(7 16)">
            <path fill="#1C3158" d="M6.587 6.81L128.163.558l3.323 3.233A5 5 0 0 1 133 7.375V79a4 4 0 0 1-4 4H6.634a4 4 0 0 1-3.03-1.39L1.097 78.7l1.695-67.995A4 4 0 0 1 6.587 6.81z"/>
            <rect width="130" height="80" fill="#0A224E" rx="4"/>
            <mask id="b" fill="#fff">
                <use xlink:href="#a"/>
            </mask>
            <use fill="#0A224E" xlink:href="#a"/>
            <g fill="#FFF" mask="url(#b)">
                <path d="M-11.926 36.991c-1.228 10.4 12.87 17.679 42.292 21.835 19.83 2.801 51.738-.235 77.715-3.991 17.317-2.505 28.839-1.174 34.563 3.991v24.417h-154.57V36.991z" opacity=".079"/>
                <path d="M-11.92 36.973c-1.194-1.565 11.018.94 36.637 7.513 38.428 9.861 68.12 13.744 83.51 15.613 10.26 1.246 21.735.816 34.423-1.291v24.417H-11.92V36.973z" opacity=".086"/>
            </g>
            <text fill="#FFF" font-family="Lato-Bold, Lato" font-size="16" font-weight="bold">
                <tspan x="20.088" y="38">398.00 MDT</tspan>
            </text>
            <text fill="#FFF" font-family="Lato-Regular, Lato" font-size="12">
                <tspan x="30.382" y="59">≈ 12</tspan> <tspan x="53.578" y="59" font-family="PingFangSC-Regular, PingFang SC">.00</tspan> <tspan x="71.146" y="59"> USD</tspan>
            </text>
        </g>
        <g fill="#FFF490" stroke="#FEE602" stroke-width="2" transform="translate(31 145)">
            <rect width="22" height="6" x="1" y="37" rx="2"/>
            <rect width="22" height="6" x="1" y="25" rx="2"/>
            <rect width="22" height="6" x="1" y="31" rx="2"/>
            <rect width="22" height="6" x="1" y="19" rx="2"/>
            <rect width="22" height="6" x="1" y="7" rx="2"/>
            <rect width="22" height="6" x="1" y="1" rx="2"/>
            <rect width="22" height="6" x="1" y="13" rx="2"/>
        </g>
        <g fill="#FFF490" stroke="#FEE602" stroke-width="2" transform="translate(49 154)">
            <rect width="22" height="6" x="1" y="25" rx="2"/>
            <rect width="22" height="6" x="1" y="31" rx="2"/>
            <rect width="22" height="6" x="1" y="19" rx="2"/>
            <rect width="22" height="6" x="1" y="7" rx="2"/>
            <rect width="22" height="6" x="1" y="1" rx="2"/>
            <rect width="22" height="6" x="1" y="13" rx="2"/>
        </g>
        <g stroke="#FFF" transform="translate(61 112)">
            <path stroke-linecap="round" stroke-linejoin="round" stroke-width="2" d="M2 31l20.745-20 20.744 17L64.234 8l20.744 12.68L105.723 2"/>
            <circle cx="106" cy="2" r="2" fill="#4187F7"/>
            <circle cx="85" cy="21" r="2" fill="#4187F7"/>
            <circle cx="64" cy="8" r="2" fill="#4187F7"/>
            <circle cx="44" cy="28" r="2" fill="#4187F7"/>
            <circle cx="23" cy="11" r="2" fill="#4187F7"/>
            <circle cx="2" cy="31" r="2" fill="#4187F7"/>
        </g>
        <g transform="translate(15 158)">
            <circle cx="30" cy="27" r="12" fill="#FEE602"/>
            <circle cx="24" cy="12" r="12" fill="#FEE602"/>
            <circle cx="14" cy="27" r="12" fill="#FEE602"/>
            <circle cx="12" cy="26" r="11" fill="#FFF490" stroke="#FEE602" stroke-width="2"/>
            <circle cx="21" cy="12" r="11" fill="#FFF490" stroke="#FEE602" stroke-width="2"/>
            <circle cx="28" cy="26" r="11" fill="#FFF490" stroke="#FEE602" stroke-width="2"/>
        </g>
    </g>
</svg>
