<svg xmlns="http://www.w3.org/2000/svg" width="200" height="200" viewBox="0 0 200 200">
    <g fill="none" fill-rule="evenodd">
        <g transform="translate(73 44)">
            <path fill="#D0D0D0" d="M6.831 2.9l58.083-1.528 2.518 1.93A4 4 0 0 1 69 6.476V118a4 4 0 0 1-4 4H6.957a4 4 0 0 1-2.822-1.166l-3.03-3.017L2.937 6.832A4 4 0 0 1 6.83 2.899z"/>
            <rect width="66" height="119" fill="#E1E1E1" rx="4"/>
            <path fill="#FFF" stroke="#D5D5D5" stroke-width="2" d="M5 16h55v88H5z"/>
            <rect width="16" height="4" x="25" y="6" fill="#D5D5D5" rx="2"/>
        </g>
        <g transform="translate(120 135)">
            <circle cx="30" cy="27" r="12" fill="#FEE602"/>
            <circle cx="24" cy="12" r="12" fill="#FEE602"/>
            <circle cx="14" cy="27" r="12" fill="#FEE602"/>
            <circle cx="12" cy="26" r="11" fill="#FFF490" stroke="#FEE602" stroke-width="2"/>
            <circle cx="21" cy="12" r="11" fill="#FFF490" stroke="#FEE602" stroke-width="2"/>
            <circle cx="28" cy="26" r="11" fill="#FFF490" stroke="#FEE602" stroke-width="2"/>
        </g>
        <g fill="#4187F7">
            <path d="M89 91h24.566L119 96H89z"/>
            <path d="M110 85l14 11h-14z"/>
        </g>
        <g fill="#83CCFC">
            <path d="M124 106H99.434L94 101h30z"/>
            <path d="M103 112l-14-11h14z"/>
        </g>
        <g transform="translate(38 96)">
            <path fill="#AFFAFF" d="M6.657 29.84l41.923-1.825 3.157 2.962A4 4 0 0 1 53 33.894V76a4 4 0 0 1-4 4H6.962A4 4 0 0 1 4.1 78.795L.95 75.569l1.886-41.912a4 4 0 0 1 3.822-3.816z"/>
            <g stroke-width="6">
                <path stroke="#83CCFC" d="M14 47.157h26V17.343C40 9.796 34.54 4 27.343 4 19.973 4 14 9.974 14 17.343v29.814z"/>
                <path stroke="#4187F7" d="M12 46.157h26V16.343C38 8.796 32.54 3 25.343 3 17.973 3 12 8.974 12 16.343v29.814z"/>
            </g>
            <rect width="50" height="50" y="27" fill="#4187F7" rx="4"/>
            <g fill="#AFFAFF" transform="translate(20 42)">
                <circle cx="5" cy="5" r="5"/>
                <path d="M5 1l5 17H0z"/>
            </g>
            <path fill="#83CCFC" d="M20.891 44.15a5 5 0 1 1 7.718 6.31l-7.718-6.31z"/>
        </g>
    </g>
</svg>
